<?xml version="1.0" encoding="UTF-8"?>
<svg width="1440px" height="1024px" viewBox="0 0 1440 1024" version="1.1" xmlns="http://www.w3.org/2000/svg" xmlns:xlink="http://www.w3.org/1999/xlink">
    <!-- Generator: Sketch 48.2 (47327) - http://www.bohemiancoding.com/sketch -->
    <title>Error-Illustration</title>
    <desc>Created with Sketch.</desc>
    <defs></defs>
    <g id="Error-Page" stroke="none" stroke-width="1" fill="none" fill-rule="evenodd">
        <g id="Error-Illustration">
            <rect id="Background" fill="#FFFFFF" x="0" y="0" width="1440" height="1024"></rect>
            <g id="Sun" transform="translate(0.000000, 608.000000)">
                <g id="Group-4" transform="translate(324.774462, 113.712846)">
                    <path d="M0.566066466,45.7731847 C1.61941576,32.4339371 8.46618615,19.6443688 19.0161376,11.3093799 C29.5674607,2.97575158 43.6669798,-0.780843963 57.0052895,1.18929379 C52.3132219,4.32409862 0.531777752,58.9110647 1.02690678,58.6920093 C-0.773936473,49.9760545 0.21083539,40.7145023 3.80154951,32.5618327" id="Fill-1" fill="#FFFFFF"></path>
                    <path d="M0.566066466,45.7731847 C1.61941576,32.4339371 8.46618615,19.6443688 19.0161376,11.3093799 C29.5674607,2.97575158 43.6669798,-0.780843963 57.0052895,1.18929379 C52.3132219,4.32409862 0.531777752,58.9110647 1.02690678,58.6920093 C-0.773936473,49.9760545 0.21083539,40.7145023 3.80154951,32.5618327" id="Stroke-3" stroke="#80BDFF" stroke-width="4" stroke-linecap="round" stroke-linejoin="round"></path>
                </g>
                <g id="Group-8" transform="translate(249.826509, 162.589421)">
                    <path d="M6.00803779,22.2649115 C13.4401043,11.1599942 25.6399887,3.32577757 38.8752877,1.15661525 C52.1105866,-1.01119049 66.1916788,2.51725928 76.813204,10.663488 C71.2064138,11.1301496 -0.443181428,33.6859106 0.0943064911,33.7333907 C2.79129537,25.277863 8.17163129,17.6891863 15.2762939,12.323935" id="Fill-5" fill="#FFFFFF"></path>
                    <path d="M6.00803779,22.2649115 C13.4401043,11.1599942 25.6399887,3.32577757 38.8752877,1.15661525 C52.1105866,-1.01119049 66.1916788,2.51725928 76.813204,10.663488 C71.2064138,11.1301496 -0.443181428,33.6859106 0.0943064911,33.7333907 C2.79129537,25.277863 8.17163129,17.6891863 15.2762939,12.323935" id="Stroke-7" stroke="#80BDFF" stroke-width="4" stroke-linecap="round" stroke-linejoin="round"></path>
                </g>
                <path d="M323.142877,170.56927 C315.142919,160.002293 311.044841,146.215218 311.893302,132.709765 C312.739164,119.204311 318.522469,106.11236 327.77238,96.7556675 C327.641148,100.489552 324.556545,167.009852 323.142877,170.56927" id="Fill-9" fill="#FFFFFF"></path>
                <path d="M323.142877,170.56927 C315.142919,160.002293 311.044841,146.215218 311.893302,132.709765 C312.739164,119.204311 318.522469,106.11236 327.77238,96.7556675 C327.641148,100.489552 324.556545,167.009852 323.142877,170.56927 Z" id="Stroke-11" stroke="#80BDFF" stroke-width="4" stroke-linecap="round" stroke-linejoin="round"></path>
                <path d="M291.668292,241.390428 C287.081559,227.055598 288.02807,211.008356 294.268836,197.319924 C300.508252,183.63285 311.981162,172.439026 325.773768,166.579345 C324.160243,170.407489 294.614495,238.282013 291.668292,241.390428" id="Fill-13" fill="#FFFFFF"></path>
                <path d="M291.668292,241.390428 C287.081559,227.055598 288.02807,211.008356 294.268836,197.319924 C300.508252,183.63285 311.981162,172.439026 325.773768,166.579345 C324.160243,170.407489 294.614495,238.282013 291.668292,241.390428 Z" id="Stroke-15" stroke="#80BDFF" stroke-width="4" stroke-linecap="round" stroke-linejoin="round"></path>
                <path d="M322.77585,169.966533 L390.728661,189.521411 C390.728661,189.521411 373.623701,153.299042 322.77585,169.966533" id="Fill-17" fill="#FFFFFF"></path>
                <path d="M322.77585,169.966533 L390.728661,189.521411 C390.728661,189.521411 373.623701,153.299042 322.77585,169.966533 Z" id="Stroke-19" stroke="#80BDFF" stroke-width="4" stroke-linecap="round" stroke-linejoin="round"></path>
                <path d="M366.745316,328.912618 C366.745316,328.912618 354.071229,196.664261 318.778626,165.581864 C333.690515,210.244161 348.951594,279.512957 355.310376,329.168766 L366.745316,328.912618 Z" id="Fill-21" fill="#FFFFFF"></path>
                <path d="M366.745316,328.912618 C366.745316,328.912618 354.071229,196.664261 318.778626,165.581864 C333.690515,210.244161 348.951594,279.512957 355.310376,329.168766 L366.745316,328.912618 Z" id="Stroke-23" stroke="#80BDFF" stroke-width="4" stroke-linecap="round" stroke-linejoin="round"></path>
                <g id="Group-28" transform="translate(311.783484, 143.637280)">
                    <path d="M67.9161436,1.44660757 C52.8870425,-1.95243447 36.5295742,1.28376268 23.8417035,10.1657093 C11.1524786,19.049036 2.31971656,33.4470083 0.0380663856,48.9641941 C5.0522804,44.8157896 82.3846494,5.90828151 81.9784208,6.38439581 C72.9858755,1.39554604 62.4686192,-0.682796359 52.2993653,0.520599769" id="Fill-25" fill="#FFFFFF"></path>
                    <path d="M67.9161436,1.44660757 C52.8870425,-1.95243447 36.5295742,1.28376268 23.8417035,10.1657093 C11.1524786,19.049036 2.31971656,33.4470083 0.0380663856,48.9641941 C5.0522804,44.8157896 82.3846494,5.90828151 81.9784208,6.38439581 C72.9858755,1.39554604 62.4686192,-0.682796359 52.2993653,0.520599769" id="Stroke-27" stroke="#80BDFF" stroke-width="4" stroke-linecap="round" stroke-linejoin="round"></path>
                </g>
                <g id="Group-32" transform="translate(391.727967, 126.680101)">
                    <path d="M82.0982148,14.6727443 C70.6766792,4.25383634 54.8789206,-1.11886134 39.5323329,0.195284393 C24.1857452,1.51079618 9.51388175,9.49539266 0,21.7092981 C6.37329817,20.6410424 92.5171482,25.7282344 91.9332002,25.9345088 C86.5326971,17.1575999 78.3940062,10.1251444 68.9654811,6.08844935" id="Fill-29" fill="#FFFFFF"></path>
                    <path d="M82.0982148,14.6727443 C70.6766792,4.25383634 54.8789206,-1.11886134 39.5323329,0.195284393 C24.1857452,1.51079618 9.51388175,9.49539266 0,21.7092981 C6.37329817,20.6410424 92.5171482,25.7282344 91.9332002,25.9345088 C86.5326971,17.1575999 78.3940062,10.1251444 68.9654811,6.08844935" id="Stroke-31" stroke="#80BDFF" stroke-width="4" stroke-linecap="round" stroke-linejoin="round"></path>
                </g>
                <path d="M451.549934,217.450882 C452.653891,199.910372 447.017039,182.025742 436.07139,168.337728 C425.125741,154.649715 408.978832,145.291303 391.727967,142.639798 C394.639637,146.504633 447.335567,214.782925 451.549934,217.450882" id="Fill-33" fill="#FFFFFF"></path>
                <path d="M451.549934,217.450882 C452.653891,199.910372 447.017039,182.025742 436.07139,168.337728 C425.125741,154.649715 408.978832,145.291303 391.727967,142.639798 C394.639637,146.504633 447.335567,214.782925 451.549934,217.450882 Z" id="Stroke-35" stroke="#80BDFF" stroke-width="4" stroke-linecap="round" stroke-linejoin="round"></path>
                <path d="M400.721721,149.465571 L393.241305,142.639798 C393.241305,142.639798 370.382133,188.248242 366.899894,271.734148 C364.883789,320.092202 366.122584,328.901008 366.122584,328.901008 L380.428625,329.168766 C380.428625,329.168766 377.460962,318.008588 379.520629,270.977089 C382.940248,192.874871 400.721721,149.465571 400.721721,149.465571" id="Fill-37" fill="#FFFFFF"></path>
                <path d="M400.721721,149.465571 L393.241305,142.639798 C393.241305,142.639798 370.382133,188.248242 366.899894,271.734148 C364.883789,320.092202 366.122584,328.901008 366.122584,328.901008 L380.428625,329.168766 C380.428625,329.168766 377.460962,318.008588 379.520629,270.977089 C382.940248,192.874871 400.721721,149.465571 400.721721,149.465571 Z" id="Stroke-39" stroke="#80BDFF" stroke-width="4" stroke-linecap="round" stroke-linejoin="round"></path>
                <path d="M393.726579,147.627204 C386.878726,129.368751 373.114445,113.887243 355.925553,105.116108 C338.739403,96.3449718 318.297335,94.369202 299.791811,99.6917975 C304.46448,102.252774 388.28999,146.883155 393.726579,147.627204" id="Fill-41" fill="#FFFFFF"></path>
                <path d="M393.726579,147.627204 C386.878726,129.368751 373.114445,113.887243 355.925553,105.116108 C338.739403,96.3449718 318.297335,94.369202 299.791811,99.6917975 C304.46448,102.252774 388.28999,146.883155 393.726579,147.627204 Z" id="Stroke-43" stroke="#80BDFF" stroke-width="4" stroke-linecap="round" stroke-linejoin="round"></path>
                <path d="M392.876318,145.632242 L374.739764,56.8564232 C374.739764,56.8564232 420.45199,82.8092539 392.876318,145.632242" id="Fill-45" fill="#FFFFFF"></path>
                <path d="M392.876318,145.632242 L374.739764,56.8564232 C374.739764,56.8564232 420.45199,82.8092539 392.876318,145.632242 Z" id="Stroke-47" stroke="#80BDFF" stroke-width="4" stroke-linecap="round" stroke-linejoin="round"></path>
                <g id="Group-52" transform="translate(555.614157, 341.138539)">
                    <path d="M0.357198754,1.39348111 L126.930747,0.100745592" id="Fill-49" fill="#FFFFFF"></path>
                    <path d="M0.357198754,1.39348111 L126.930747,0.100745592" id="Stroke-51" stroke="#80BDFF" stroke-width="4" stroke-linecap="round" stroke-linejoin="round"></path>
                </g>
                <path d="M755.475364,330.166247 L582.59542,330.166247 C582.59542,282.237524 621.296302,243.38539 669.035392,243.38539 C716.774482,243.38539 755.475364,282.237524 755.475364,330.166247" id="Fill-53" fill="#DFEFFF"></path>
                <path d="M755.475364,330.166247 L582.59542,330.166247 C582.59542,282.237524 621.296302,243.38539 669.035392,243.38539 C716.774482,243.38539 755.475364,282.237524 755.475364,330.166247 Z" id="Stroke-55" stroke="#80BDFF" stroke-width="4" stroke-linecap="round" stroke-linejoin="round"></path>
                <g id="Group-60" transform="translate(1.998612, 328.171285)">
                    <path d="M0.124823445,0.896635768 L1437.95736,0.896635768" id="Fill-57" fill="#FFFFFF"></path>
                    <path d="M0.124823445,0.896635768 L1437.95736,0.896635768" id="Stroke-59" stroke="#80BDFF" stroke-width="4" stroke-linecap="round" stroke-linejoin="round"></path>
                </g>
                <g id="Group-64" transform="translate(0.000000, 298.246851)">
                    <path d="M-0.00027253801,61.7093466 L568.944627,61.8336631 C466.828722,24.6343399 170.675294,0.926772708 -0.00027253801,0.926772708" id="Fill-61" fill="#DFEFFF"></path>
                    <path d="M-0.00027253801,61.7093466 L568.944627,61.8336631 C466.828722,24.6343399 170.675294,0.926772708 -0.00027253801,0.926772708" id="Stroke-63" stroke="#80BDFF" stroke-width="4" stroke-linecap="round" stroke-linejoin="round"></path>
                </g>
                <g id="Group-68" transform="translate(846.412214, 151.617128)">
                    <path d="M0.667923664,44.2885356 C1.6709771,31.4244798 8.20456489,19.0895368 18.2708244,11.0508798 C28.3357099,3.01360074 41.7876183,-0.608893131 54.5140305,1.29122823 C50.0373893,4.31295856 0.634946565,56.9596858 1.10761832,56.7474895 C-0.609938931,48.3409337 0.328534351,39.4093988 3.75540458,31.5471127" id="Fill-65" fill="#FFFFFF"></path>
                    <path d="M0.667923664,44.2885356 C1.6709771,31.4244798 8.20456489,19.0895368 18.2708244,11.0508798 C28.3357099,3.01360074 41.7876183,-0.608893131 54.5140305,1.29122823 C50.0373893,4.31295856 0.634946565,56.9596858 1.10761832,56.7474895 C-0.609938931,48.3409337 0.328534351,39.4093988 3.75540458,31.5471127" id="Stroke-67" stroke="#80BDFF" stroke-width="4" stroke-linecap="round" stroke-linejoin="round"></path>
                </g>
                <g id="Group-72" transform="translate(776.460791, 198.498741)">
                    <path d="M5.6802617,20.2463403 C12.7511889,9.93842753 24.3566141,2.66668765 36.9501699,0.654032973 C49.5450887,-1.35994408 62.9414156,1.91557868 73.0476078,9.47691867 C67.7130648,9.91065766 -0.458415305,30.8491427 0.0526867992,30.8941034 C2.61910083,23.0431633 7.73829951,15.998872 14.4971137,11.0174855" id="Fill-69" fill="#FFFFFF"></path>
                    <path d="M5.6802617,20.2463403 C12.7511889,9.93842753 24.3566141,2.66668765 36.9501699,0.654032973 C49.5450887,-1.35994408 62.9414156,1.91557868 73.0476078,9.47691867 C67.7130648,9.91065766 -0.458415305,30.8491427 0.0526867992,30.8941034 C2.61910083,23.0431633 7.73829951,15.998872 14.4971137,11.0174855" id="Stroke-71" stroke="#80BDFF" stroke-width="4" stroke-linecap="round" stroke-linejoin="round"></path>
                </g>
                <path d="M845.778937,206.478589 C837.778565,196.484284 833.682877,183.442835 834.53012,170.667481 C835.377363,157.892128 841.15935,145.505685 850.409438,136.654912 C850.278463,140.187852 847.192372,203.11213 845.778937,206.478589" id="Fill-73" fill="#FFFFFF"></path>
                <path d="M845.778937,206.478589 C837.778565,196.484284 833.682877,183.442835 834.53012,170.667481 C835.377363,157.892128 841.15935,145.505685 850.409438,136.654912 C850.278463,140.187852 847.192372,203.11213 845.778937,206.478589 Z" id="Stroke-75" stroke="#80BDFF" stroke-width="4" stroke-linecap="round" stroke-linejoin="round"></path>
                <path d="M816.14877,275.304786 C811.810057,261.542843 812.705964,246.136805 818.607151,232.996361 C824.509679,219.855917 835.362497,209.109747 848.410826,203.486146 C846.884564,207.160378 818.93574,272.31913 816.14877,275.304786" id="Fill-77" fill="#FFFFFF"></path>
                <path d="M816.14877,275.304786 C811.810057,261.542843 812.705964,246.136805 818.607151,232.996361 C824.509679,219.855917 835.362497,209.109747 848.410826,203.486146 C846.884564,207.160378 818.93574,272.31913 816.14877,275.304786 Z" id="Stroke-79" stroke="#80BDFF" stroke-width="4" stroke-linecap="round" stroke-linejoin="round"></path>
                <path d="M845.412908,206.689964 L911.367106,225.43073 C911.367106,225.43073 894.765439,190.718606 845.412908,206.689964" id="Fill-81" fill="#FFFFFF"></path>
                <path d="M845.412908,206.689964 L911.367106,225.43073 C911.367106,225.43073 894.765439,190.718606 845.412908,206.689964 Z" id="Stroke-83" stroke="#80BDFF" stroke-width="4" stroke-linecap="round" stroke-linejoin="round"></path>
                <path d="M887.383761,353.718286 C879.796478,307.450409 875.237819,231.921636 841.415684,202.488665 C855.724733,244.886885 870.428939,307.611644 876.424657,354.105793 C878.321135,353.12483 885.48865,354.700604 887.383761,353.718286" id="Fill-85" fill="#FFFFFF"></path>
                <path d="M887.383761,353.718286 C879.796478,307.450409 875.237819,231.921636 841.415684,202.488665 C855.724733,244.886885 870.428939,307.611644 876.424657,354.105793 C878.321135,353.12483 885.48865,354.700604 887.383761,353.718286 Z" id="Stroke-87" stroke="#80BDFF" stroke-width="4" stroke-linecap="round" stroke-linejoin="round"></path>
                <g id="Group-92" transform="translate(816.433033, 23.939547)">
                    <path d="M1.20330881,54.8547839 C3.13145131,38.0615733 12.2517844,22.2269516 25.7789091,12.190691 C39.3060338,2.15443035 57.0400148,-1.93472263 73.5647985,1.16967307 C67.5735887,4.90899618 0.550095767,71.4441566 1.17728985,71.1893592 C-0.65910155,60.1008545 0.995157067,48.4517956 5.84700995,38.3218797" id="Fill-89" fill="#FFFFFF"></path>
                    <path d="M1.20330881,54.8547839 C3.13145131,38.0615733 12.2517844,22.2269516 25.7789091,12.190691 C39.3060338,2.15443035 57.0400148,-1.93472263 73.5647985,1.16967307 C67.5735887,4.90899618 0.550095767,71.4441566 1.17728985,71.1893592 C-0.65910155,60.1008545 0.995157067,48.4517956 5.84700995,38.3218797" id="Stroke-91" stroke="#80BDFF" stroke-width="4" stroke-linecap="round" stroke-linejoin="round"></path>
                </g>
                <g id="Group-96" transform="translate(721.498959, 80.795970)">
                    <path d="M8.74913532,24.8876891 C18.50561,11.5924394 34.038712,2.52604023 50.6014601,0.461004964 C67.162848,-1.60536517 84.5131325,3.36033049 97.3490243,13.8390162 C90.3523276,14.1580488 0.197768217,38.6154348 0.86288966,38.6995313 C4.60878834,28.4410982 11.6503706,19.3693595 20.734923,13.1035059" id="Fill-93" fill="#FFFFFF"></path>
                    <path d="M8.74913532,24.8876891 C18.50561,11.5924394 34.038712,2.52604023 50.6014601,0.461004964 C67.162848,-1.60536517 84.5131325,3.36033049 97.3490243,13.8390162 C90.3523276,14.1580488 0.197768217,38.6154348 0.86288966,38.6995313 C4.60878834,28.4410982 11.6503706,19.3693595 20.734923,13.1035059" id="Stroke-95" stroke="#80BDFF" stroke-width="4" stroke-linecap="round" stroke-linejoin="round"></path>
                </g>
                <path d="M812.323487,90.7707809 C802.683153,77.360165 798.11564,60.1685647 799.781579,43.560743 C801.447517,26.9515636 809.331115,11.0904354 821.429563,0 C821.09927,4.5969169 814.268398,86.4508194 812.323487,90.7707809" id="Fill-97" fill="#FFFFFF"></path>
                <path d="M812.323487,90.7707809 C802.683153,77.360165 798.11564,60.1685647 799.781579,43.560743 C801.447517,26.9515636 809.331115,11.0904354 821.429563,0 C821.09927,4.5969169 814.268398,86.4508194 812.323487,90.7707809 Z" id="Stroke-99" stroke="#80BDFF" stroke-width="4" stroke-linecap="round" stroke-linejoin="round"></path>
                <path d="M771.316252,179.546599 C766.123955,161.448866 768.087673,141.468415 776.707828,124.676088 C785.327982,107.886477 800.521541,94.4493551 818.431645,87.7783375 C816.188384,92.4797002 775.228466,175.804255 771.316252,179.546599" id="Fill-101" fill="#FFFFFF"></path>
                <path d="M771.316252,179.546599 C766.123955,161.448866 768.087673,141.468415 776.707828,124.676088 C785.327982,107.886477 800.521541,94.4493551 818.431645,87.7783375 C816.188384,92.4797002 775.228466,175.804255 771.316252,179.546599 Z" id="Stroke-103" stroke="#80BDFF" stroke-width="4" stroke-linecap="round" stroke-linejoin="round"></path>
                <path d="M809.43789,96.6374651 L815.834346,87.7783375 C815.834346,87.7783375 882.891526,134.011994 895.644665,217.264245 C908.399175,300.516496 903.411201,352.012036 903.411201,352.012036 L887.19103,352.110831 C887.19103,352.110831 887.092286,283.971608 882.792781,233.537106 C875.541911,148.482173 809.43789,96.6374651 809.43789,96.6374651" id="Fill-105" fill="#FFFFFF"></path>
                <path d="M809.43789,96.6374651 L815.834346,87.7783375 C815.834346,87.7783375 882.891526,134.011994 895.644665,217.264245 C908.399175,300.516496 903.411201,352.012036 903.411201,352.012036 L887.19103,352.110831 C887.19103,352.110831 887.092286,283.971608 882.792781,233.537106 C875.541911,148.482173 809.43789,96.6374651 809.43789,96.6374651 Z" id="Stroke-107" stroke="#80BDFF" stroke-width="4" stroke-linecap="round" stroke-linejoin="round"></path>
                <g id="Group-112" transform="translate(471.672450, 56.856423)">
                    <path d="M65.9790734,47.1593236 C63.8761449,32.3230449 55.4345253,18.5086353 43.234278,9.93781116 C31.031312,1.36698706 15.2477943,-1.83423012 0.705371401,1.31356495 C6.09251124,4.48601638 66.9482963,61.8462944 66.3868811,61.6339757 C67.7516775,51.7618438 66.011698,41.4801424 61.4809543,32.6189212" id="Fill-109" fill="#FFFFFF"></path>
                    <path d="M65.9790734,47.1593236 C63.8761449,32.3230449 55.4345253,18.5086353 43.234278,9.93781116 C31.031312,1.36698706 15.2477943,-1.83423012 0.705371401,1.31356495 C6.09251124,4.48601638 66.9482963,61.8462944 66.3868811,61.6339757 C67.7516775,51.7618438 66.011698,41.4801424 61.4809543,32.6189212" id="Stroke-111" stroke="#80BDFF" stroke-width="4" stroke-linecap="round" stroke-linejoin="round"></path>
                </g>
                <g id="Group-116" transform="translate(536.627342, 101.743073)">
                    <path d="M80.2955267,22.0184939 C71.1856031,10.3310845 56.9793435,2.57259969 42.0214809,1.11167351 C27.0608702,-0.347909901 11.5643817,4.51154951 0.269725191,14.2076413 C6.57522137,14.3271473 88.3323206,34.1208171 87.7332366,34.2107822 C84.1098779,25.1055061 77.5474351,17.1402358 69.2165954,11.7383001" id="Fill-113" fill="#FFFFFF"></path>
                    <path d="M80.2955267,22.0184939 C71.1856031,10.3310845 56.9793435,2.57259969 42.0214809,1.11167351 C27.0608702,-0.347909901 11.5643817,4.51154951 0.269725191,14.2076413 C6.57522137,14.3271473 88.3323206,34.1208171 87.7332366,34.2107822 C84.1098779,25.1055061 77.5474351,17.1402358 69.2165954,11.7383001" id="Stroke-115" stroke="#80BDFF" stroke-width="4" stroke-linecap="round" stroke-linejoin="round"></path>
                </g>
                <path d="M540.952698,112.715365 C549.31491,100.505943 553.022883,85.0476549 551.134342,70.2652508 C549.2458,55.4814868 541.77935,41.5177587 530.631506,31.9193955 C531.036858,36.0154949 539.102698,108.90757 540.952698,112.715365" id="Fill-117" fill="#FFFFFF"></path>
                <path d="M540.952698,112.715365 C549.31491,100.505943 553.022883,85.0476549 551.134342,70.2652508 C549.2458,55.4814868 541.77935,41.5177587 530.631506,31.9193955 C531.036858,36.0154949 539.102698,108.90757 540.952698,112.715365 Z" id="Stroke-119" stroke="#80BDFF" stroke-width="4" stroke-linecap="round" stroke-linejoin="round"></path>
                <path d="M581.543321,191.516373 C585.699421,175.241258 583.478437,157.454553 575.44386,142.671982 C567.407908,127.88805 553.636704,116.253833 537.626648,110.720403 C539.723939,114.864693 577.99057,188.267336 581.543321,191.516373" id="Fill-121" fill="#FFFFFF"></path>
                <path d="M581.543321,191.516373 C585.699421,175.241258 583.478437,157.454553 575.44386,142.671982 C567.407908,127.88805 553.636704,116.253833 537.626648,110.720403 C539.723939,114.864693 577.99057,188.267336 581.543321,191.516373 Z" id="Stroke-123" stroke="#80BDFF" stroke-width="4" stroke-linecap="round" stroke-linejoin="round"></path>
                <path d="M545.621096,118.492995 L539.753006,110.720403 C539.753006,110.720403 510.139016,149.841455 492.032581,228.155552 C475.062476,301.557784 468.674532,349.118388 468.674532,349.118388 L482.982766,347.476119 C482.982766,347.476119 493.847988,273.772329 504.103538,229.663343 C521.134882,156.41189 545.621096,118.492995 545.621096,118.492995" id="Fill-125" fill="#FFFFFF"></path>
                <path d="M545.621096,118.492995 L539.753006,110.720403 C539.753006,110.720403 510.139016,149.841455 492.032581,228.155552 C475.062476,301.557784 468.674532,349.118388 468.674532,349.118388 L482.982766,347.476119 C482.982766,347.476119 493.847988,273.772329 504.103538,229.663343 C521.134882,156.41189 545.621096,118.492995 545.621096,118.492995 Z" id="Stroke-127" stroke="#80BDFF" stroke-width="4" stroke-linecap="round" stroke-linejoin="round"></path>
                <path d="M541.623872,114.032388 L467.675226,140.644836 C467.675226,140.644836 483.998098,98.8779108 541.623872,114.032388" id="Fill-129" fill="#FFFFFF"></path>
                <path d="M541.623872,114.032388 L467.675226,140.644836 C467.675226,140.644836 483.998098,98.8779108 541.623872,114.032388 Z" id="Stroke-131" stroke="#80BDFF" stroke-width="4" stroke-linecap="round" stroke-linejoin="round"></path>
                <path d="M454.684247,348.644755 C454.684247,348.644755 455.788888,312.211587 476.790561,312.211587 C497.792234,312.211587 502.216197,335.770201 502.216197,335.770201 C502.216197,335.770201 509.547607,335.592155 515.55831,339.983936 C519.521781,342.878519 517.446192,349.158658 512.536078,349.118193 L454.684247,348.644755 Z" id="Fill-133" fill="#FFFFFF"></path>
                <path d="M454.684247,348.644755 C454.684247,348.644755 455.788888,312.211587 476.790561,312.211587 C497.792234,312.211587 502.216197,335.770201 502.216197,335.770201 C502.216197,335.770201 509.547607,335.592155 515.55831,339.983936 C519.521781,342.878519 517.446192,349.158658 512.536078,349.118193 L454.684247,348.644755 Z" id="Stroke-135" stroke="#80BDFF" stroke-width="4" stroke-linecap="round" stroke-linejoin="round"></path>
                <g id="Group-140" transform="translate(694.517696, 342.136020)">
                    <polyline id="Fill-137" fill="#FFFFFF" points="0.345461195 0.396 4.43053643 0.396 122.963079 0.396"></polyline>
                    <polyline id="Stroke-139" stroke="#80BDFF" stroke-width="4" stroke-linecap="round" stroke-linejoin="round" points="0.345461195 0.396 4.43053643 0.396 122.963079 0.396"></polyline>
                </g>
                <g id="Group-144" transform="translate(604.580153, 358.095718)">
                    <path d="M0.351912155,0.395002519 L140.892731,0.395002519" id="Fill-141" fill="#FFFFFF"></path>
                    <path d="M0.351912155,0.395002519 L140.892731,0.395002519" id="Stroke-143" stroke="#80BDFF" stroke-width="4" stroke-linecap="round" stroke-linejoin="round"></path>
                </g>
                <g id="Group-148" transform="translate(665.537821, 373.057935)">
                    <polyline id="Fill-145" fill="#FFFFFF" points="0.346151617 0.892745592 2.38473593 0.892745592 33.0300944 0.892745592"></polyline>
                    <polyline id="Stroke-147" stroke="#80BDFF" stroke-width="4" stroke-linecap="round" stroke-linejoin="round" points="0.346151617 0.892745592 2.38473593 0.892745592 33.0300944 0.892745592"></polyline>
                </g>
                <g id="Group-152" transform="translate(323.775156, 311.214106)">
                    <path d="M0.123473438,0.47123145 L6.88449257,18.8155503" id="Fill-149" fill="#FFFFFF"></path>
                    <path d="M0.123473438,0.47123145 L6.88449257,18.8155503" id="Stroke-151" stroke="#80BDFF" stroke-width="4" stroke-linecap="round" stroke-linejoin="round"></path>
                </g>
                <g id="Group-156" transform="translate(672.532963, 309.219144)">
                    <path d="M767.422897,86.6047279 L0.0851593741,86.7803077 C144.841107,33.8278873 525.477621,0.0781437646 767.422897,0.0781437646" id="Fill-153" fill="#DFEFFF"></path>
                    <path d="M767.422897,86.6047279 L0.0851593741,86.7803077 C144.841107,33.8278873 525.477621,0.0781437646 767.422897,0.0781437646" id="Stroke-155" stroke="#80BDFF" stroke-width="4" stroke-linecap="round" stroke-linejoin="round"></path>
                </g>
                <g id="Group-160" transform="translate(1008.299792, 169.571788)">
                    <path d="M15.1497453,0.381554608 C30.7603849,0.214439291 46.3286748,6.80316614 57.0964232,18.1368722 C67.8655378,29.4692084 73.6783733,45.3794085 72.7562431,61.0060605 C68.6319304,55.9049339 -0.123462987,1.70340937 0.182547626,2.25269824 C10.1278925,-0.730721111 20.9926354,-0.555387007 30.8368875,2.7513046" id="Fill-157" fill="#FFFFFF"></path>
                    <path d="M15.1497453,0.381554608 C30.7603849,0.214439291 46.3286748,6.80316614 57.0964232,18.1368722 C67.8655378,29.4692084 73.6783733,45.3794085 72.7562431,61.0060605 C68.6319304,55.9049339 -0.123462987,1.70340937 0.182547626,2.25269824 C10.1278925,-0.730721111 20.9926354,-0.555387007 30.8368875,2.7513046" id="Stroke-159" stroke="#80BDFF" stroke-width="4" stroke-linecap="round" stroke-linejoin="round"></path>
                </g>
                <g id="Group-164" transform="translate(918.362248, 139.647355)">
                    <path d="M12.1876246,7.76878186 C25.5359432,0.114776826 42.1439393,-1.8163466 56.9375483,2.56725038 C71.7311573,6.94951738 84.4927069,17.580006 91.3257264,31.2122479 C85.2876842,28.8914418 -0.306228518,16.2340715 0.225108381,16.5519355 C7.32447238,9.2450539 16.7587443,4.16721008 26.8406254,2.22012695" id="Fill-161" fill="#FFFFFF"></path>
                    <path d="M12.1876246,7.76878186 C25.5359432,0.114776826 42.1439393,-1.8163466 56.9375483,2.56725038 C71.7311573,6.94951738 84.4927069,17.580006 91.3257264,31.2122479 C85.2876842,28.8914418 -0.306228518,16.2340715 0.225108381,16.5519355 C7.32447238,9.2450539 16.7587443,4.16721008 26.8406254,2.22012695" id="Stroke-163" stroke="#80BDFF" stroke-width="4" stroke-linecap="round" stroke-linejoin="round"></path>
                </g>
                <path d="M936.349757,225.43073 C938.897633,208.050101 948.210985,191.731228 961.923339,180.617548 C975.637068,169.505231 993.616496,163.705781 1011.29771,164.692574 C1007.6037,167.8683 941.086827,223.695666 936.349757,225.43073" id="Fill-165" fill="#FFFFFF"></path>
                <path d="M936.349757,225.43073 C938.897633,208.050101 948.210985,191.731228 961.923339,180.617548 C975.637068,169.505231 993.616496,163.705781 1011.29771,164.692574 C1007.6037,167.8683 941.086827,223.695666 936.349757,225.43073 Z" id="Stroke-167" stroke="#80BDFF" stroke-width="4" stroke-linecap="round" stroke-linejoin="round"></path>
                <path d="M1004.21261,169.734947 L1012.76052,164.584383 C1012.76052,164.584383 1025.76937,214.07288 1011.89061,296.579447 C1004.95389,337.817829 1001.42651,352.584044 1001.42651,352.584044 L987.314365,353.108312 C987.314365,353.108312 992.414471,339.765885 999.951912,293.233341 C1012.47011,215.959975 1004.21261,169.734947 1004.21261,169.734947" id="Fill-169" fill="#FFFFFF"></path>
                <path d="M1004.21261,169.734947 L1012.76052,164.584383 C1012.76052,164.584383 1025.76937,214.07288 1011.89061,296.579447 C1004.95389,337.817829 1001.42651,352.584044 1001.42651,352.584044 L987.314365,353.108312 C987.314365,353.108312 992.414471,339.765885 999.951912,293.233341 C1012.47011,215.959975 1004.21261,169.734947 1004.21261,169.734947 Z" id="Stroke-171" stroke="#80BDFF" stroke-width="4" stroke-linecap="round" stroke-linejoin="round"></path>
                <path d="M1009.2991,168.569699 C1019.73556,152.741838 1036.39311,140.930021 1055.04274,136.131595 C1073.691,131.331835 1094.15209,133.5962 1111.22831,142.345249 C1106.12091,143.815217 1014.78549,168.964895 1009.2991,168.569699" id="Fill-173" fill="#FFFFFF"></path>
                <path d="M1009.2991,168.569699 C1019.73556,152.741838 1036.39311,140.930021 1055.04274,136.131595 C1073.691,131.331835 1094.15209,133.5962 1111.22831,142.345249 C1106.12091,143.815217 1014.78549,168.964895 1009.2991,168.569699 Z" id="Stroke-175" stroke="#80BDFF" stroke-width="4" stroke-linecap="round" stroke-linejoin="round"></path>
                <path d="M1009.74844,165.581864 L1045.27412,82.790932 C1045.27412,82.790932 995.907621,98.6860998 1009.74844,165.581864" id="Fill-177" fill="#FFFFFF"></path>
                <path d="M1009.74844,165.581864 L1045.27412,82.790932 C1045.27412,82.790932 995.907621,98.6860998 1009.74844,165.581864 Z" id="Stroke-179" stroke="#80BDFF" stroke-width="4" stroke-linecap="round" stroke-linejoin="round"></path>
                <g id="Group-184" transform="translate(1013.296322, 329.168766)">
                    <path d="M0.191067314,23.8065411 L11.3739681,0.219907835" id="Fill-181" fill="#FFFFFF"></path>
                    <path d="M0.191067314,23.8065411 L11.3739681,0.219907835" id="Stroke-183" stroke="#80BDFF" stroke-width="4" stroke-linecap="round" stroke-linejoin="round"></path>
                </g>
                <g id="Group-188" transform="translate(1028.285913, 337.148615)">
                    <path d="M0.866331714,15.8311432 L11.316408,0.465111191" id="Fill-185" fill="#FFFFFF"></path>
                    <path d="M0.866331714,15.8311432 L11.316408,0.465111191" id="Stroke-187" stroke="#80BDFF" stroke-width="4" stroke-linecap="round" stroke-linejoin="round"></path>
                </g>
            </g>
            <g id="Clouds" transform="translate(223.000000, 357.000000)">
                <g id="Group-5" transform="translate(762.000000, 4.000000)">
                    <path d="M16.5034,85.3248 L188.0794,85.9528 C204.1854,86.0118 203.4944,72.7488 198.2504,68.1088 C192.8764,63.3538 182.2154,65.2358 182.2154,65.2358 C182.2154,65.2358 179.0754,56.3038 168.6504,51.9238 C159.4304,48.0488 149.7484,49.8408 149.7484,49.8408 C149.7484,49.8408 149.7714,43.7198 143.8764,38.6278 C137.9824,33.5368 130.0964,34.0008 130.0964,34.0008 C130.0964,34.0008 124.7994,0.2258 88.5814,0.0938 C52.3634,-0.0392 48.0594,31.7288 48.0594,31.7288 C48.0594,31.7288 39.9284,31.6998 33.9944,37.0978 C28.0624,42.4968 27.3004,48.6538 27.3004,48.6538 C27.3004,48.6538 7.5344,45.9158 1.6244,62.9538 C-1.8986,73.1078 5.2174,85.2838 16.5034,85.3248" id="Fill-13" fill="#FFFFFF"></path>
                    <path d="M16.5034,85.3248 L188.0794,85.9528 C204.1854,86.0118 203.4944,72.7488 198.2504,68.1088 C192.8764,63.3538 182.2154,65.2358 182.2154,65.2358 C182.2154,65.2358 179.0754,56.3038 168.6504,51.9238 C159.4304,48.0488 149.7484,49.8408 149.7484,49.8408 C149.7484,49.8408 149.7714,43.7198 143.8764,38.6278 C137.9824,33.5368 130.0964,34.0008 130.0964,34.0008 C130.0964,34.0008 124.7994,0.2258 88.5814,0.0938 C52.3634,-0.0392 48.0594,31.7288 48.0594,31.7288 C48.0594,31.7288 39.9284,31.6998 33.9944,37.0978 C28.0624,42.4968 27.3004,48.6538 27.3004,48.6538 C27.3004,48.6538 7.5344,45.9158 1.6244,62.9538 C-1.8986,73.1078 5.2174,85.2838 16.5034,85.3248 Z" id="Stroke-15" stroke="#E1E4E5" stroke-width="4" stroke-linecap="round" stroke-linejoin="round"></path>
                </g>
                <g id="Group-9" transform="translate(723.000000, 8.000000)">
                    <path d="M119.9937,62.2916 L10.2167,62.7126 C1.3287,62.7476 -2.5473,51.2536 4.7077,46.1196 C4.8087,46.0476 4.9127,45.9756 5.0147,45.9036 C15.3447,38.7446 28.9387,39.3396 28.9387,39.3396 C28.9387,39.3396 30.7327,0.8196 67.3037,0.6796 C85.3847,0.6096 100.1147,31.4606 100.1147,31.4606 C100.1147,31.4606 124.7107,31.3666 128.8547,50.7706 C130.1097,56.6476 126.0047,62.2686 119.9937,62.2916" id="Fill-1" fill="#FFFFFF"></path>
                    <path d="M119.9937,62.2916 L10.2167,62.7126 C1.3287,62.7476 -2.5473,51.2536 4.7077,46.1196 C4.8087,46.0476 4.9127,45.9756 5.0147,45.9036 C15.3447,38.7446 28.9387,39.3396 28.9387,39.3396 C28.9387,39.3396 30.7327,0.8196 67.3037,0.6796 C85.3847,0.6096 100.1147,31.4606 100.1147,31.4606 C100.1147,31.4606 124.7107,31.3666 128.8547,50.7706 C130.1097,56.6476 126.0047,62.2686 119.9937,62.2916 Z" id="Stroke-3" stroke="#E1E4E5" stroke-width="4" stroke-linecap="round" stroke-linejoin="round"></path>
                </g>
                <g id="Group-6" transform="translate(190.000000, 0.000000)">
                    <path d="M5.6382,36.2115 L63.7292,35.9885 C68.9212,35.9685 71.1342,29.2365 66.8722,26.2695 C66.8132,26.2275 66.7522,26.1855 66.6922,26.1445 C60.6252,22.0075 52.6852,22.4165 52.6852,22.4165 C52.6852,22.4165 51.4632,-0.0815 30.0962,0.0005 C10.7792,0.0745 3.1482,19.0635 0.4092,29.5195 C-0.4798,32.9175 2.1262,36.2255 5.6382,36.2115" id="Fill-9" fill="#FFFFFF"></path>
                    <path d="M5.6382,36.2115 L63.7292,35.9885 C68.9212,35.9685 71.1342,29.2365 66.8722,26.2695 C66.8132,26.2275 66.7522,26.1855 66.6922,26.1445 C60.6252,22.0075 52.6852,22.4165 52.6852,22.4165 C52.6852,22.4165 51.4632,-0.0815 30.0962,0.0005 C10.7792,0.0745 3.1482,19.0635 0.4092,29.5195 C-0.4798,32.9175 2.1262,36.2255 5.6382,36.2115 Z" id="Stroke-11" stroke="#E1E4E5" stroke-width="4" stroke-linecap="round" stroke-linejoin="round"></path>
                </g>
                <g id="Group-56" transform="translate(418.000000, 148.487000)">
                    <path d="M0.2681,0.3109 L48.6581,0.3109" id="Fill-53" fill="#FFFFFF"></path>
                    <path d="M0.2681,0.3109 L48.6581,0.3109" id="Stroke-55" stroke="#80BDFF" stroke-width="4" stroke-linecap="round" stroke-linejoin="round"></path>
                </g>
                <g id="Group-60" transform="translate(480.000000, 148.487000)">
                    <path d="M0.3218,0.3109 L48.7108,0.3109" id="Fill-57" fill="#FFFFFF"></path>
                    <path d="M0.3218,0.3109 L48.7108,0.3109" id="Stroke-59" stroke="#80BDFF" stroke-width="4" stroke-linecap="round" stroke-linejoin="round"></path>
                </g>
                <g id="Group-64" transform="translate(541.000000, 148.487000)">
                    <path d="M0.7788,0.3109 L49.1678,0.3109" id="Fill-61" fill="#FFFFFF"></path>
                    <path d="M0.7788,0.3109 L49.1678,0.3109" id="Stroke-63" stroke="#80BDFF" stroke-width="4" stroke-linecap="round" stroke-linejoin="round"></path>
                </g>
                <g id="Group-68" transform="translate(600.000000, 148.487000)">
                    <path d="M0.2524,0.3109 L9.3524,0.3109" id="Fill-65" fill="#FFFFFF"></path>
                    <path d="M0.2524,0.3109 L9.3524,0.3109" id="Stroke-67" stroke="#80BDFF" stroke-width="4" stroke-linecap="round" stroke-linejoin="round"></path>
                </g>
                <g id="Group-3" transform="translate(74.000000, 72.000000)">
                    <path d="M120.4663,51.6822 C134.3923,51.6282 127.7913,29.5722 110.1693,34.9142 C109.0753,4.2562 59.0113,-17.9858 38.5053,23.4482 C32.6453,18.8482 19.5583,27.6302 22.4923,35.2512 C16.0043,35.8282 10.9013,36.5992 6.9323,37.6082 C-2.2307,39.9392 -0.3697,52.0422 9.0853,51.9212 L120.4663,51.6822 Z" id="Fill-29" fill="#FFFFFF"></path>
                    <path d="M120.4663,51.6822 C134.3923,51.6282 127.7913,29.5722 110.1693,34.9142 C109.0753,4.2562 59.0113,-17.9858 38.5053,23.4482 C32.6453,18.8482 19.5583,27.6302 22.4923,35.2512 C16.0043,35.8282 10.9013,36.5992 6.9323,37.6082 C-2.2307,39.9392 -0.3697,52.0422 9.0853,51.9212 L120.4663,51.6822 Z" id="Stroke-31" stroke="#E1E4E5" stroke-width="4" stroke-linecap="round" stroke-linejoin="round"></path>
                </g>
                <g id="Group-7" transform="translate(0.000000, 70.000000)">
                    <path d="M12.2124,83.7398 L159.7364,84.3058 C171.6814,84.3518 176.8894,68.9068 167.1404,62.0068 C167.0034,61.9098 166.8654,61.8128 166.7264,61.7168 C152.8464,52.0948 134.5764,52.8948 134.5764,52.8948 C134.5764,52.8948 132.1654,1.1308 83.0204,0.9418 C58.7224,0.8488 38.9264,42.3068 38.9264,42.3068 C38.9264,42.3068 5.8734,42.1808 0.3044,68.2568 C-1.3836,76.1558 4.1354,83.7088 12.2124,83.7398" id="Fill-5" fill="#FFFFFF"></path>
                    <path d="M12.2124,83.7398 L159.7364,84.3058 C171.6814,84.3518 176.8894,68.9068 167.1404,62.0068 C167.0034,61.9098 166.8654,61.8128 166.7264,61.7168 C152.8464,52.0948 134.5764,52.8948 134.5764,52.8948 C134.5764,52.8948 132.1654,1.1308 83.0204,0.9418 C58.7224,0.8488 38.9264,42.3068 38.9264,42.3068 C38.9264,42.3068 5.8734,42.1808 0.3044,68.2568 C-1.3836,76.1558 4.1354,83.7088 12.2124,83.7398 Z" id="Stroke-7" stroke="#E1E4E5" stroke-width="4" stroke-linecap="round" stroke-linejoin="round"></path>
                </g>
                <g id="Group" transform="translate(921.000000, 163.000000)">
                    <path d="M5.4214,34.7638 L67.0964,35.0008 C72.0894,35.0198 74.2674,28.5628 70.1914,25.6778 C70.1344,25.6378 70.0764,25.5968 70.0184,25.5568 C64.2154,21.5348 56.5774,21.8688 56.5774,21.8688 C56.5774,21.8688 55.5694,0.2278 35.0244,0.1488 C24.8654,0.1098 16.5904,17.4428 16.5904,17.4428 C16.5904,17.4428 2.7724,17.3888 0.4434,28.2908 C-0.2626,31.5928 2.0454,34.7508 5.4214,34.7638" id="Fill-73" fill="#FFFFFF"></path>
                    <path d="M5.4214,34.7638 L67.0964,35.0008 C72.0894,35.0198 74.2674,28.5628 70.1914,25.6778 C70.1344,25.6378 70.0764,25.5968 70.0184,25.5568 C64.2154,21.5348 56.5774,21.8688 56.5774,21.8688 C56.5774,21.8688 55.5694,0.2278 35.0244,0.1488 C24.8654,0.1098 16.5904,17.4428 16.5904,17.4428 C16.5904,17.4428 2.7724,17.3888 0.4434,28.2908 C-0.2626,31.5928 2.0454,34.7508 5.4214,34.7638 Z" id="Stroke-75" stroke="#E1E4E5" stroke-width="4" stroke-linecap="round" stroke-linejoin="round"></path>
                </g>
                <g id="Group-80" transform="translate(683.000000, 249.487000)">
                    <path d="M0.3628,0.5136 L31.1238,0.5136" id="Fill-77" fill="#FFFFFF"></path>
                    <path d="M0.3628,0.5136 L31.1238,0.5136" id="Stroke-79" stroke="#80BDFF" stroke-width="4" stroke-linecap="round" stroke-linejoin="round"></path>
                </g>
                <g id="Group-84" transform="translate(641.000000, 249.487000)">
                    <path d="M0.0962,0.5136 L19.8642,0.5136" id="Fill-81" fill="#FFFFFF"></path>
                    <path d="M0.0962,0.5136 L19.8642,0.5136" id="Stroke-83" stroke="#80BDFF" stroke-width="4" stroke-linecap="round" stroke-linejoin="round"></path>
                </g>
                <g id="Group-88" transform="translate(727.000000, 249.487000)">
                    <path d="M0.0962,0.5136 L16.2212,0.5136" id="Fill-85" fill="#FFFFFF"></path>
                    <path d="M0.0962,0.5136 L16.2212,0.5136" id="Stroke-87" stroke="#80BDFF" stroke-width="4" stroke-linecap="round" stroke-linejoin="round"></path>
                </g>
                <g id="Group-92" transform="translate(244.000000, 180.487000)">
                    <path d="M0.0962,0.5136 L29.0962,0.5136" id="Fill-89" fill="#FFFFFF"></path>
                    <path d="M0.0962,0.5136 L29.0962,0.5136" id="Stroke-91" stroke="#80BDFF" stroke-width="4" stroke-linecap="round" stroke-linejoin="round"></path>
                </g>
                <g id="Group-96" transform="translate(367.000000, 202.487000)">
                    <path d="M0.4565,0.5136 L17.0965,0.5136" id="Fill-93" fill="#FFFFFF"></path>
                    <path d="M0.4565,0.5136 L17.0965,0.5136" id="Stroke-95" stroke="#80BDFF" stroke-width="4" stroke-linecap="round" stroke-linejoin="round"></path>
                </g>
                <g id="Group-100" transform="translate(306.000000, 202.487000)">
                    <path d="M0.0962,0.5136 L26.8832,0.5136" id="Fill-97" fill="#FFFFFF"></path>
                    <path d="M0.0962,0.5136 L26.8832,0.5136" id="Stroke-99" stroke="#80BDFF" stroke-width="4" stroke-linecap="round" stroke-linejoin="round"></path>
                </g>
                <g id="Group-116" transform="translate(610.000000, 231.487000)">
                    <path d="M0.0962,0.5136 L54.0962,0.5136" id="Fill-113" fill="#FFFFFF"></path>
                    <path d="M0.0962,0.5136 L54.0962,0.5136" id="Stroke-115" stroke="#80BDFF" stroke-width="4" stroke-linecap="round" stroke-linejoin="round"></path>
                </g>
                <g id="Group-120" transform="translate(749.000000, 104.487000)">
                    <path d="M0.396,0.8466 L43.096,0.8466" id="Fill-117" fill="#FFFFFF"></path>
                    <path d="M0.396,0.8466 L43.096,0.8466" id="Stroke-119" stroke="#80BDFF" stroke-width="4" stroke-linecap="round" stroke-linejoin="round"></path>
                </g>
                <g id="Group-124" transform="translate(708.000000, 104.487000)">
                    <path d="M0.0962,0.8466 L18.8312,0.8466" id="Fill-121" fill="#FFFFFF"></path>
                    <path d="M0.0962,0.8466 L18.8312,0.8466" id="Stroke-123" stroke="#80BDFF" stroke-width="4" stroke-linecap="round" stroke-linejoin="round"></path>
                </g>
            </g>
        </g>
    </g>
</svg>