<?xml version="1.0" standalone="no"?>
<!DOCTYPE svg PUBLIC "-//W3C//DTD SVG 1.1//EN" "http://www.w3.org/Graphics/SVG/1.1/DTD/svg11.dtd" >
<svg xmlns="http://www.w3.org/2000/svg">
<metadata>Generated by IcoMoon</metadata>
<defs>
<font id="novicons" horiz-adv-x="1024">
<font-face units-per-em="1024" ascent="960" descent="-64" />
<missing-glyph horiz-adv-x="1024" />
<glyph unicode="&#x20;" horiz-adv-x="512" d="" />
<glyph unicode="&#xe900;" glyph-name="mapping" d="M857.6 422.4c-76.8 0-140.8-55.467-162.133-123.733h-140.8v247.467c72.533 17.067 123.733 85.333 123.733 162.133 0 89.6-72.533 166.4-166.4 166.4s-166.4-76.8-166.4-166.4c0-76.8 51.2-140.8 123.733-162.133v-251.733h-140.8c-17.067 72.533-85.333 123.733-162.133 123.733-93.867 0-166.4-76.8-166.4-166.4 0-93.867 76.8-166.4 166.4-166.4 76.8 0 140.8 51.2 162.133 123.733h366.933c21.333-72.533 85.333-123.733 162.133-123.733 93.867 0 166.4 76.8 166.4 166.4 0 93.867-76.8 170.667-166.4 170.667z" />
<glyph unicode="&#xe901;" glyph-name="change-grade" d="M321 641h254.6v191h-447.6v-447.6h193zM384 576h512v-512h-512v512z" />
<glyph unicode="&#xe902;" glyph-name="archive-02" horiz-adv-x="1077" d="M406.117-30.563c-87.771 0-175.543 0-263.314 0h-2.090c-6.966 0-13.932 0-21.595 2.090-26.471 5.573-45.279 30.65-45.279 58.514 0 203.407 0 383.826 0 551.706 0 32.044 23.684 57.818 56.424 59.907 4.18 0 8.359 0 11.842 0h279.336c171.363 0 342.727 0 514.090 0 6.966 0 16.022 0 24.381-2.090 25.774-6.269 43.189-30.65 43.189-57.818 0-206.193 0-386.612 0-551.706 0-32.044-23.684-57.818-56.424-59.907-4.18 0-8.359 0-13.235 0h-2.090c-97.524 0-195.744 0-293.268 0l-231.967-0.697zM142.106 16.109v0c88.468 0 176.239 0 264.011 0h232.664c97.524 0 195.744 0 293.268 0h2.090c3.483 0 6.966 0 9.752 0 4.876 0 13.235 2.786 13.235 13.932 0 165.094 0 345.513 0 551.706 0 6.269-3.483 11.842-8.359 12.539-3.483 0.697-8.359 0.697-13.235 0.697-171.363 0-342.727 0-514.090 0h-279.336c-2.786 0-5.573 0-8.359 0-4.876-0.697-13.235-2.786-13.235-13.932 0-167.88 0-348.299 0-551.706 0-6.269 4.876-11.842 9.056-13.235 2.786-0.697 6.966-0.697 11.842-0.697h0.697zM494.585 411.080c-11.146 0-20.898 0-29.257 0-29.257 0.697-54.335 20.898-59.907 48.762-5.573 26.471 10.449 55.728 36.223 66.177 8.359 3.483 18.112 4.876 29.257 4.876 22.988 0 45.976 0 68.267 0 22.988 0 45.279 0 66.873 0 11.842 0 21.595-2.090 29.954-5.573 25.078-10.449 40.403-39.010 35.527-65.48-5.573-29.257-29.954-48.762-60.604-49.459-8.359 0-18.112 0-29.257 0-6.966 0-14.629 0-21.595 0s-14.629 0-21.595 0h-0.697c-6.966 0-13.932 0-21.595 0-6.966 0.697-14.629 0.697-21.595 0.697zM904.185 657.676c-15.325 0-29.954 0-45.279 0s-29.954 0-45.279 0h-486.922c-75.233 0-149.769 0-225.001 0-34.133 0-57.818 17.415-64.784 47.369-1.393 4.876-1.393 9.752-1.393 15.325 0 50.852 0 97.524 0 142.106 0 36.223 24.381 61.997 60.604 63.39 2.090 0 4.18 0 5.573 0h290.482c185.295 0 383.826 0 579.57 0 11.842 0 43.189 0 59.907-29.954 4.18-7.663 9.056-18.808 9.056-31.347 0.697-50.852 0.697-102.4 0-146.286 0-35.527-26.471-61.301-62.694-61.301-20.898 0.697-44.582 0.697-73.839 0.697zM812.234 705.741h1.393c15.325 0 29.954 0 45.279 0s29.954 0 45.279 0c29.257 0 52.941 0 74.536 0 6.966 0 14.629 2.090 14.629 13.235 0 43.886 0 95.434 0 145.589 0 0.697-0.697 3.483-2.786 8.359-1.393 2.090-2.786 4.876-18.112 4.876-195.744 0-394.275 0-579.57 0h-290.482c-1.393 0-2.090 0-3.483 0-11.146 0-15.325-4.876-15.325-15.325 0-44.582 0-90.558 0-142.106 0-2.786 0-3.483 0.697-4.18 1.393-4.876 2.786-10.449 18.112-10.449 75.233 0 149.769 0 225.001 0h484.833z" />
<glyph unicode="&#xe903;" glyph-name="delete2" d="M959.36 741.792c-3.072 50.24-44.384 90.112-95.36 90.112h-96v32.064c0 53.024-43.008 96-96 96h-320c-53.024 0-96-42.976-96-96v-32.032h-96c-51.040 0-92.32-39.872-95.392-90.112h-0.608v-69.856c0-35.328 28.672-64 64-64v0-544c0-70.688 57.312-128 128-128h512c70.688 0 128 57.312 128 128v544c35.328 0 64 28.672 64 64v69.824h-0.64zM320 863.936c0 17.696 14.304 32 32 32h320c17.696 0 32-14.304 32-32v-32h-384v32zM832 63.936c0-35.264-28.736-64-64-64h-512c-35.296 0-64 28.736-64 64v544h640v-544zM896 703.968v-32h-768v63.968c0 17.696 14.304 32 32 32h704c17.696 0 32-14.304 32-32v-31.968zM288 63.808h64c17.696 0 32 14.304 32 32v416c0 17.696-14.304 32-32 32h-64c-17.696 0-32-14.304-32-32v-416c0-17.696 14.304-32 32-32zM288 511.84h64v-416h-64v416zM480 63.808h64c17.696 0 32 14.304 32 32v416c0 17.696-14.304 32-32 32h-64c-17.696 0-32-14.304-32-32v-416c0-17.696 14.304-32 32-32zM480 511.84h64v-416h-64v416zM672 63.808h64c17.696 0 32 14.304 32 32v416c0 17.696-14.304 32-32 32h-64c-17.696 0-32-14.304-32-32v-416c0-17.696 14.304-32 32-32zM672 511.84h64v-416h-64v416z" />
<glyph unicode="&#xe904;" glyph-name="alert-line" horiz-adv-x="887" d="M855.467 119.596c-2.844 13.188-8.533 25.083-13.705 35.168-30.772 61.285-61.414 122.44-92.057 183.725l-0.259 0.646c-77.188 153.859-157.091 313.147-236.218 469.98l-0.259 0.388c-6.465 11.636-15.774 23.273-26.893 33.358-9.956 9.309-23.143 14.481-37.107 14.481-13.317 0-26.505-4.525-37.107-12.929-12.024-9.309-21.463-21.075-28.962-35.814-58.57-117.010-118.174-235.701-175.838-350.642l-1.552-3.103c-51.071-101.624-103.822-206.869-155.539-310.044-3.491-6.465-6.206-13.576-7.758-19.911-9.697-35.168 4.525-65.81 36.202-77.964 12.671-5.042 26.893-7.499 42.408-7.499 108.735-0.517 219.669-0.517 326.982-0.517 105.115 0 213.721 0 320.388 0.517h0.776c2.457 0.129 5.042 0.259 7.499 0.388h0.259c6.982 0.259 14.222 0.517 21.98 1.552h0.388c20.945 3.232 38.271 13.446 48.485 28.832 9.438 13.964 12.154 31.16 7.887 49.39zM816.549 90.764c-4.396-6.465-12.541-10.99-23.014-12.671-5.818-0.776-11.895-1.034-18.23-1.293-2.586-0.129-5.301-0.259-7.758-0.388-106.408-0.517-214.756-0.517-319.741-0.517-107.184 0-218.117 0-326.853 0.517-10.731 0-20.687 1.681-28.962 4.913h-0.129c-13.834 5.301-18.489 16.549-13.705 33.616l0.129 0.646c0.905 3.62 2.457 7.758 4.525 11.636l0.259 0.388c52.234 104.21 105.244 209.842 156.444 311.984l0.259 0.388c57.665 114.941 117.398 233.891 176.356 351.677 4.913 9.826 10.861 17.196 18.618 23.273 4.137 3.232 9.18 5.042 14.093 5.042 3.232 0 7.887-0.776 11.895-4.525l0.259-0.129c8.145-7.37 14.739-15.386 19.135-23.402 78.998-156.574 158.642-315.475 235.701-469.075l0.517-1.034c30.642-61.285 61.414-122.44 92.186-183.725 4.137-8.016 8.663-17.455 10.602-26.376l0.129-0.388c1.81-8.275 0.905-15.127-2.715-20.558zM448.323 264.275c-32.84 0-60.638-27.669-60.638-60.251 0-33.745 27.022-61.156 60.251-61.156 0.388 0 0.776 0 1.164 0 32.97 0.646 59.863 27.927 59.863 60.768 0 33.487-27.281 60.638-60.638 60.638zM440.566 299.96c2.715-0.517 5.56-0.776 8.404-0.776 27.927 0 51.588 27.152 51.588 59.216v179.717l0.129 4.137c0 15.903-5.43 31.030-15.257 42.408-9.697 11.248-22.756 17.584-36.59 17.972h-0.259c-29.091 0-52.752-27.152-52.752-60.638v-180.881c0.129-32.323 17.325-55.725 44.735-61.156z" />
<glyph unicode="&#xe905;" glyph-name="syllabi" horiz-adv-x="1170" d="M960 831.8c0-42.6 0-84.8 0-127.6-234.6 0-469.2 0-704 0 0 42.4 0 84.8 0 127.6 234.8 0 468.8 0 704 0zM960 511.6c0-42.8 0-85 0-127.4-234.8 0-469 0-704 0 0 42.4 0 84.8 0 127.4 234.8 0 468.8 0 704 0zM256 64c0 43 0 85 0 128 234.6 0 469 0 704 0 0-42.4 0-84.8 0-128-234.4 0-468.8 0-704 0zM192 768.4c0-35.4-28.2-63.8-63.4-64.2-35.6-0.2-64.4 28.8-64.6 64.2-0.2 27.8 21.8 62.6 64 63.6 34.8 1.2 64-29 64-63.6zM128.4 191.8c38 0.4 65-34.6 63.6-66.4-1.8-32.4-30.6-61.6-64-60.8-42.2 0.6-65.6 36.6-64.2 67.2 1.2 32.2 30.4 60.2 64.6 60zM128.4 384.8c-35.8 0.2-64.2 29-64 65.2 0.2 33.2 29.6 62.4 64 62.2 41.6-0.2 65.2-35.8 64.4-65.2-1.2-34.2-29.4-62.6-64.4-62.2z" />
<glyph unicode="&#xe906;" glyph-name="campaign-solid" d="M255.4 704c0-214.6 0-360.6 0-575.4 159.6 0 352.8 0 512 0 0 214.8 0 361 0 575.2-9 0-35.4 0-44.6 0 0-38 0-51 0-88.4-142 0-283.2 0-425.4 0 0 38 0 51.2 0 88.6-9.2 0-33.6 0-42 0zM383.8 191.6h-64v64h64v-64zM704.4 191.4h-256v64.2h256v-64.2zM704.4 319.4h-256v64.2h256v-64.2zM448 511.8h256v-64.2h-256v64.2zM383.8 319.6h-64v64h64v-64zM319.4 511.6h64v-64h-64v64zM894.6 768c-7.2 27.4-32.2 44.2-66.6 44.2-59.4 0.2-118.8 0-178 0-3.4 0-6.4-0.2-9.6-0.4 0-18.6 0-36.8 0-55.4 4.2 0 7.8 0 11.4 0 46.6 0 93.4-0.8 140 0.2 25.6 0.6 40.4-12 40.4-34.8-0.6-210.8-0.4-421.8-0.4-632.6 0-22.6-12-33-38-33-188 0-376.2 0-564.2 0-26 0-38 10.6-38 33 0 211.2 0 422.4-0.4 633.6 0 20.8 14.2 34.4 38.4 34 47.6-0.8 95.4-0.2 143-0.2 3.6 0 7.2 0 10.6 0 0 19.2 0 37 0 55.6-66.2 0-131.6 1.2-196.2-0.6-36.2-0.8-59-25.6-59-57.2 0-232.2 0-464.4 0-696.6 0-4.6 0-9.4 1.4-13.8 7.4-24.2 29.2-44 69.2-44 209 0.4 418.2 0.2 627.2 0.2 2.2 0 4.6-0.2 6.8 0 38.2 1.8 63.6 24.8 63.6 58.4 0 231.8 0 463.8 0 695.6-0.2 4.4-0.4 9.4-1.6 13.8zM348 728.4c-14.4-0.2-26.4-9.4-27.2-23-1.2-19.8-0.4-39.8-0.4-60 124.6 0 260 0 384.2 0 0 18.2 0 36.2 0 53.8 0 17.2-10.6 28.6-26.8 29.2-12.4 0.4-33 0.2-45.4 0.2-13.8 0-27.6 0-42.2 0 0 4-0.2 7.2-0.2 10 0.4 24 0.6 47.8 1 71.8 0.6 42.8-38.8 92.6-91.6 85-43.2-6.2-69.6-51.2-69-84.8 0.6-24.6 0-49 0-73.6 0-2.8-0.2-5.4-0.4-8.6-4 0-7.2 0-10.2 0-22.4 0-49.2 0.2-71.8 0zM510.4 812.4c14.6 0 26.6-12.4 26.6-27.6s-11.6-27.8-26.2-28c-14.6-0.4-27 12.4-27 28 0 15.2 12 27.6 26.6 27.6z" />
<glyph unicode="&#xe907;" glyph-name="campaign" d="M895.8 763.2c0 4.2-0.2 8.4-1.4 12.4-8.2 24.6-31 45.2-73.2 45.2-53 0-106.2 0-159.2 0-3.2 0-6.4-0.4-9.6-0.6 0-20 0-39.6 0-59.8 4.6 0 8.4 0 12.4 0 40.8 0 81.4 0.2 122.2 0 26.2-0.2 39.2-11.4 39.2-33.2 0-209.2 0-418.6 0-628 0-21.8-13.6-33.4-40.2-33.4-182.6 0-365.2 0-547.6 0-27.2 0-40.4 11.4-40.4 34.2 0 208.4 0.2 416.8-0.4 625.2-0.2 19.8 12.8 36 42.6 35.4 40-0.8 80-0.2 120-0.2 3.8 0 7.8 0 11.8 0 0 20.4 0 39.8 0 59.2-2 0.4-2.6 0.8-3 1-56.8 0-113.4 0.8-170.2-0.2-42-0.8-70.8-25.4-70.8-57.2 0-232.6 0.2-465-0.2-697.6 0-24.2 28.8-56.8 67.8-56.6 211 0.8 421.8 0.8 632.8 0 39.6-0.2 68.2 32.6 68.2 56.4-1 232.8-0.8 465.4-0.8 697.8zM349.4 709.2c-14.8-0.6-28.2-10-29-22-1.6-20.2-0.4-40.4-0.4-60.6 163.2 0 221.6 0 384.2 0 0 19.6 0.2 38.6-0.2 57.4 0 3.8-2 7.6-4.2 11-7.8 12.2-21 15.4-36.6 15.4-32.4 0-12.8 0-45.4 0 0 28.4-0.4 55.6 0.4 83 0.4 21.2-7 40-22 57-27.4 31.2-73 43.8-116.6 32-41.2-11-72-46.8-72-83.2 0-26.4-0.2-52.8-0.2-79.4 0-3-0.2-6.2-0.4-9.8-13.4 0-25.4 0-37.4 0-24.2 0 3.8 0.2-20.2-0.8zM510.4 834.2c16 0 28.8-13 28.8-28.8s-13-28.8-28.8-28.8-28.8 13-28.8 28.8 12.8 28.8 28.8 28.8zM448 520.6h256v-64.2h-256v64.2zM448 392.4h256v-64.2h-256v64.2zM448 264.4h256v-64.2h-256v64.2zM320 520.4h63.2v-64h-63.2v64zM320 392.4h63.2v-64h-63.2v64zM320 264.4h63.2v-64h-63.2v64z" />
<glyph unicode="&#xe908;" glyph-name="read-more" d="M512.051 560.64c-62.208 0-112.691-50.432-112.691-112.64s50.483-112.64 112.691-112.64c62.208 0 112.589 50.432 112.589 112.64s-50.381 112.64-112.589 112.64zM153.651 560.64c-62.208 0-112.691-50.432-112.691-112.64s50.483-112.64 112.691-112.64c62.208 0 112.589 50.483 112.589 112.64s-50.381 112.64-112.589 112.64zM870.451 560.64c-62.208 0-112.691-50.432-112.691-112.64s50.483-112.64 112.691-112.64c62.208 0 112.589 50.432 112.589 112.64s-50.381 112.64-112.589 112.64z" />
<glyph unicode="&#xe909;" glyph-name="spring" d="M526.643-3.635c-73.165 11.878-139.93 31.078-188.262 47.258-2.355 0.768-39.987 14.438-51.558 18.944-14.234 5.478-21.658 22.067-16.23 36.352 4.403 11.52 19.405 48.589 20.429 50.893 20.48 47.104 51.2 110.234 91.904 173.005 1.485-61.594 15.206-122.829 40.499-179.507 24.576-55.142 59.853-105.267 103.219-146.944zM520.858 600.218c-142.899 291.277-460.288 280.883-510.362 150.682-38.451-99.942 129.792-338.022 516.966-166.093 0.102 0.051 0.102 0.051 0.205 0.102-1.331 2.406-5.837 12.646-6.81 15.309zM591.872 611.584c0.051 0 0.102 0.051 0.102 0.051 218.675 97.126 188.109 265.779 131.533 287.437-76.134 29.133-214.528-83.149-135.526-278.886 0.768-1.382 3.379-7.168 3.891-8.602zM993.946 398.336c-33.075 74.24-93.85 127.437-164.506 152.781-7.117 2.56-14.387 3.738-21.658 3.738-36.71 0-72.038-30.464-75.366-68.506-5.581-63.437 7.014-128.051 34.816-190.362 27.392-61.389 66.253-113.306 116.224-151.398 13.005-9.933 28.928-14.592 44.8-14.592 28.621 0 57.19 15.155 68.557 42.291 29.235 69.734 30.566 151.194-2.867 226.048zM828.006 72.243c-61.184 46.694-109.67 109.517-144.128 186.675-34.918 78.285-49.203 157.44-42.342 235.315 1.894 21.658 8.243 42.547 18.432 61.645-1.792-0.461-5.683-1.382-5.837-1.434-32.154-8.038-63.334-21.965-91.034-40.141-40.141-26.317-75.52-65.382-90.726-111.462-4.096-12.442-7.219-26.112-8.243-39.168-4.864-62.362 5.274-126.771 32.563-187.904 26.419-59.136 65.792-108.442 113.306-146.074 28.979-22.886 81.203-37.376 123.904-37.376 40.090 0 79.667 11.93 115.2 29.952 11.11 5.632 35.584 20.89 37.171 21.965-21.248 5.427-41.165 14.95-58.266 28.006z" />
<glyph unicode="&#xe90a;" glyph-name="dashboard" d="M447.8 896c0-166 0-346 0-512-128.4 0-256.2 0-385 0 0 165.4 0 345.6 0 512 127.6 0 256 0 385 0zM576 512c128.4 0 255.8 0 384 0 0-165.8 0-346.8 0-512.8-127.6 0-255.4 0-384 0 0 165 0 346.4 0 512.8zM960.2 642c-128.2 0-255.8 0-383.8 0 0 99.4 0 154 0 253.8 127.4 0 255.2 0 383.8 0 0-98.8 0-153.8 0-253.8zM447.8-0.2c-128.4 0-255.8 0-384 0 0 99 0 157 0 256.4 127.6 0 255.4 0 384 0 0-98.4 0-156.6 0-256.4z" />
<glyph unicode="&#xe90b;" glyph-name="alert" horiz-adv-x="1023" d="M1021.492 12.248c-3.010 14.046-9.364 27.59-15.885 40.465-143.467 285.931-286.432 572.029-430.568 857.458-7.692 14.046-18.728 26.921-30.432 37.455-18.226 17.056-46.317 15.885-65.714 0.669-13.544-10.534-23.41-23.41-31.101-38.626-145.306-290.278-291.282-580.389-436.588-870.5-3.511-6.521-6.521-14.046-8.193-21.069-9.364-33.442 2.341-61.534 32.773-73.238 14.715-5.852 31.101-8.193 46.819-8.193 142.464-0.669 285.429-0.669 428.395-0.669 140.123 0 280.078 0 419.7 0.669 12.374 0.669 24.58 0.669 36.954 2.341 37.455 5.852 63.373 33.275 53.842 73.238zM512.334 63.749c-35.783-0.669-64.543 28.76-64.543 64.543 0 34.613 29.262 63.373 63.875 63.373 35.783 0 63.875-28.76 63.875-63.875 0-34.78-28.091-63.373-63.206-64.042zM575.54 511.54c0-32.272 0-64.543 0-96.648 0-31.937 0-63.707 0-96.648 0-37.455-35.783-67.386-72.737-61.032-34.613 5.852-55.012 30.432-55.012 65.045 0 62.871 0 125.743 0 188.781 0 0.334 0 0.836 0 1.17 0 35.114 29.262 63.875 64.543 63.875 35.114-0.669 63.373-28.76 63.373-63.373-0.167-0.334-0.167-0.836-0.167-1.17z" />
<glyph unicode="&#xe90c;" glyph-name="logo-01" horiz-adv-x="1091" d="M405.878 48.354c-1.644 5.379-3 11.802-3.806 18.395-0.057 0.598-0.057 0.638-0.057 0.679 0 5.042 4.087 9.129 9.129 9.129 0.811 0 1.598-0.106 2.347-0.304 10.821 0.014 13.629-15.961 17.492-24.914 20.189-46.873 72.328-87.776 122.887-87.776 38.271 0 82.159 25.455 82.159 68.817 0 96.73-228.219 49.857-228.219 211.892 0 61.092 58.635 116.392 122.887 116.392 46.346 0 87.776-23.173 105.332-23.173 5.969 0 17.555 8.251 22.997 8.251s8.778-3.511 8.778-11.235c0.87-34.231 3.586-66.892 8.068-98.988-0.388 3.906-0.313 3.178-0.313 2.432 0-6.011-4.873-10.884-10.884-10.884-0.073 0-0.145 0.001-0.217 0.002-9.82 0-11.927 9.48-16.316 24.402-12.64 43.362-71.801 82.51-113.407 82.51-33.355 0-75.137-20.715-75.137-54.597 0-100.943 228.219-47.575 228.219-210.663-4.219-72.25-63.016-129.459-135.541-131.135-40.964 3.076-78.727 9.806-115.069 19.941 4.016-0.987 3.879-0.988 3.741-0.988-7.022 0-13.081 4.123-15.888 10.079l-19.181 82.617zM105.332 232.333c-6.733 9.143-14.557 16.967-23.4 23.488-2.758 0.211-4.338-1.544-4.338-15.764v-211.892c0-29.142 8.602-51.086 32.828-59.864 12.64-4.74 29.317-3.511 29.317-14.922s-12.113-11.938-21.242-11.938c-17.555 0-35.111 4.74-52.666 4.74s-35.111-4.74-52.666-4.74c-0.664-0.188-1.427-0.296-2.215-0.296-4.654 0-8.427 3.773-8.427 8.427 0 0.477 0.040 0.944 0.116 1.399 0.481 8.158 5.935 14.974 13.372 17.466 21.441 11.419 35.691 33.506 35.691 58.921 0 2.697-0.16 5.357-0.472 7.97l0.031 222.988c0 22.646-7.549 55.299-26.157 65.832s-23.7 11.235-23.7 20.715 2.984 9.48 6.495 9.48c15.098 0 30.195-2.458 45.468-2.458s30.195 2.458 45.468 2.458c1.063 0.21 2.285 0.329 3.535 0.329 6.413 0 12.089-3.154 15.561-7.996l195.254-238.107c4.567-6.609 10.447-11.984 17.297-15.841 4.296-0.134 4.823 8.117 4.823 16.544v134.825c0 39.148-2.107 75.312-33.355 83.739-13.166 3.511-26.684 7.724-26.684 17.555s9.655 9.48 18.609 9.48c17.555 0 35.111-4.74 52.666-4.74s35.111 4.74 52.666 4.74c0.664 0.188 1.427 0.296 2.215 0.296 4.654 0 8.427-3.773 8.427-8.427 0-0.477-0.040-0.944-0.116-1.399-0.509-8.199-6.038-15.031-13.547-17.467-20.716-11.531-34.401-33.175-34.401-58.015 0-3.017 0.202-5.988 0.593-8.898l-0.037-285.811c0-26.157-2.107-33.179-8.075-33.179-12.604 7.635-23.048 17.575-31.027 29.323l-217.907 261.041zM732.056 281.488c0 36.866-17.555 49.33-38.797 49.33-5.985 0.034-10.824 4.894-10.824 10.884 0 0.558 0.042 1.105 0.123 1.64-0.007 8.191 4.557 11.175 29.661 11.175 20.364 0 40.904-4.74 61.268-4.74s40.904 4.74 61.268 4.74c12.289 0 14.746-3.511 14.746-9.48-2.264-7.087-7.985-12.46-15.129-14.19-15.123-9.488-24.927-25.953-24.927-44.709 0-1.637 0.075-3.257 0.221-4.857l-0.015-184.3c0-70.221 39.851-119.376 102.698-119.376 91.463 0 113.934 84.968 113.934 150.8v151.327c0 30.195-13.342 49.33-41.255 51.086-0.425-0.043-0.919-0.068-1.418-0.068-8.018 0-14.559 6.324-14.907 14.256-0.001 7.229 6.143 9.511 18.959 9.511s30.546-2.458 45.995-2.458 30.546 2.458 45.995 2.458c10.182 0 11.762-2.458 11.762-9.48s-9.129-10.007-17.555-14.22c-14.746-7.022-18.784-17.555-18.784-70.221v-126.398c0-131.84-58.635-198.901-174.148-198.901-93.394 0-147.991 45.644-147.991 157.998v188.193zM545.443 573.959c-85.505-2.255-153.96-72.106-153.96-157.946 0-0.018 0-0.036 0-0.054l307.744 0.003c0 0.017 0 0.036 0 0.056 0 85.778-68.356 155.591-153.567 157.937l-0.217 0.005zM545.443 596.254c8.427 0 15.273 12.113 15.273 27.035s-15.273 336.71-15.273 336.71-15.273-321.788-15.273-336.71 6.847-27.035 15.273-27.035v0zM591.087 590.286c8.075-2.282 17.555 7.724 21.769 22.295s73.030 329.162 73.030 329.162-97.959-307.042-101.821-321.437 0-27.913 7.724-30.195v0zM633.219 572.555c7.373-4.213 19.311 2.984 26.684 15.8s155.189 298.44 155.189 298.44-173.797-270.176-181.873-283.167-7.549-26.86 0-31.073v0zM669.734 544.642c5.969-5.969 19.311-2.107 30.020 8.427s228.219 248.934 228.219 248.934-238.401-216.808-248.934-228.219-14.22-24.051-8.427-30.020v0zM697.823 508.302c4.213-7.373 17.555-7.022 31.073 0s284.045 181.522 284.045 181.522-286.327-147.816-298.44-155.189-20.013-19.486-15.8-26.684v0zM715.378 465.643c2.107-8.075 15.624-11.586 30.195-7.724s321.437 101.821 321.437 101.821-314.766-68.641-329.337-72.503-24.402-13.518-22.295-21.769v0zM720.996 420.175c0-8.427 12.113-15.273 27.035-15.273s336.886 15.273 336.886 15.273-321.788 15.273-336.886 15.273-27.035-6.847-27.035-15.273v0zM499.799 590.286c8.251 2.107 11.586 15.624 7.724 30.195s-102.523 321.262-102.523 321.262 68.641-314.766 72.503-329.337 13.693-24.402 21.769-22.295v0zM457.666 572.555c7.198 4.213 7.022 17.555 0 31.073s-182.224 283.342-182.224 283.342 147.816-286.327 155.189-298.44 19.486-20.013 26.684-15.8v0zM420.976 544.642c5.969 5.969 2.282 19.311-8.427 30.020s-248.934 228.219-248.934 228.219 216.808-238.401 228.219-248.934 24.051-14.395 29.844-8.427v0zM393.063 508.302c4.213 7.373-2.809 19.311-15.8 26.684s-298.44 155.189-298.44 155.189 271.054-174.148 284.045-181.522 26.86-7.724 31.073 0v0zM375.508 465.643c2.107 8.075-7.724 17.555-22.295 21.769s-329.162 72.503-329.162 72.503 306.866-97.959 321.437-101.821 27.913 0 30.195 7.724v0zM369.89 420.175c0 8.427-12.113 15.273-27.035 15.273s-336.71-15.273-336.71-15.273 321.788-15.273 336.71-15.273 27.035 6.847 27.035 15.273v0z" />
<glyph unicode="&#xe90d;" glyph-name="appcentral" horiz-adv-x="883" d="M555.497 703.276c8.831-8.456 15.618-18.975 19.591-30.786 17.181-50.589-22.996-108.13-87.858-129.070s-130.575 2.383-146.748 52.434c-2.27 6.972-3.578 14.995-3.578 23.323s1.309 16.351 3.731 23.874c-54.375-48.339-88.401-117.944-88.401-195.496 0-143.289 116.159-259.447 259.447-259.447s259.447 116.159 259.447 259.447c0 127.81-92.417 234.034-214.072 255.493zM800.814 178.083c-72.372-77.335-175.063-125.526-289.010-125.526-218.412 0-395.47 177.058-395.47 395.47s177.058 395.47 395.47 395.47c110.828 0 211.007-45.589 282.809-119.037l82.298 82.153c-93.047 94.883-222.576 153.696-365.843 153.696-282.911 0-512.255-229.345-512.255-512.255s229.345-512.255 512.255-512.255c146.372 0 278.406 61.391 371.756 159.83z" />
<glyph unicode="&#xe90e;" glyph-name="razor" horiz-adv-x="958" d="M909.065 806.047c-47.554 12.071-102.262 19.251-158.561 19.771-21.592 0.998-46.509 1.565-71.558 1.565-51.131 0-101.709-2.363-151.633-6.984 5.37 0.417 4.161 0.382 2.945 0.382-20.189 0-38.117 9.682-49.393 24.656-49.172 57.561-116.030 98.468-192.078 114.348l-29.255 0.392c-0.106-0.901-0.166-1.944-0.166-3.001s0.060-2.101 0.178-3.127c16.597-21.75 30.799-46.799 41.435-73.648 12.162-28.943 18.797-60.119 18.797-92.844 0-4.799-0.143-9.564-0.424-14.292-0.043-5.828-4.072-11.347-9.751-13.613-11.404-5.157-23.233-9.571-34.532-14.867-48.69-22.167-89.852-52.929-123.25-90.713-19.271-20.946-34.062-45.644-43.179-72.938-2.839-13.891-11.976-23.734-23.836-27.143-21.42-5.001-42.607-10.651-63.616-16.124-7.489-1.849-13.845-3.965-19.976-6.514-0.422-1.417-1.223-3.634-1.223-6.038 0-0.18 0.005-0.36 0.013-0.538 0.812-0.962 1.893-1.701 3.131-2.081 8.168 8.992 18.761 3.166 27.941 4.225 17.655 2.295 35.31 3.531 51.73 5.65 7.239 0 9.357-2.119 8.828-9.004-0.237-8.188-1.901-15.921-4.75-23.052-5.49-12.788 3.868-26.382 4.75-40.153 3.209-32.926 13.362-62.908 28.973-89.276 7.237-11.136 15.497-21.696 24.632-31.427-7.794-10.991-13.509-24.091-16.411-38.217-1.311-2.604-2.383-4.819-3.218-7.146-0.077-10.486-0.077-20.726-0.077-30.966 3.086-0.743 6.629-1.168 10.271-1.168 8.156 0 15.813 2.135 22.443 5.877 0.626 0.147 1.346 0.638 1.884 1.287 4.596 12.542 17.661 8.658 26.842 13.955 2.833 2.955 6.813 4.792 11.222 4.792 6.151 0 11.467-3.575 13.985-8.76l75.428-38.581c5.029-1.599 9.346-4.206 12.901-7.604 15.631-19.532 27.332-42.945 33.465-68.523 4.391-26.572 9.978-48.807 17.202-70.291 7.511-25.012 17.712-49.236 30.138-72.075 16.64-30.446 35.177-68.581 61.131-86.236h10.77c1.419 3.553 2.96 6.574 4.736 9.433-12.151 15.814 2.326 35.058-10.033 50.418 3.884 29.308-6.003 56.673-5.473 85.804 0 32.309 1.059 64.265 0 96.574-0.012 0.727-0.019 1.584-0.019 2.442 0 28.692 7.605 55.608 20.909 78.842 20.246 39.073 42.402 73.301 67.415 105.182 3.023 4.335 6.388 11.013 8.659 18.178 1.022 2.981-11.16 7.747 1.905 9.336 5.166 0.908 9.681 3.229 13.258 6.548 9.87 8.989 19.404 18.699 28.585 28.586 2.621 2.646 4.24 6.289 4.24 10.31 0 0.1-0.001 0.199-0.003 0.298-3.157 3.832-7.554 6.558-12.573 7.554-2.454 0.242-5.145 0.367-7.865 0.367-14.45 0-28.078-3.521-40.072-9.753-45.126-20.325-84.119-47.392-117.303-80.305-15.863-15.863-32.282-31.4-47.466-47.996-4.209-5.164-10.569-8.435-17.694-8.435-2.186 0-4.3 0.308-6.301 0.883-9.587 3.045-17.942 6.636-25.856 10.936-5.939 2.795-6.292 5.973-1.525 10.74 7.526 6.279 16.944 10.531 27.285 11.803 2.905 0.026 10.497 4.44 3.081 11.148-15.43 12.485-27.623 28.359-35.534 46.526-4.367 11.736-3.661 17.032 6.756 22.152 16.763 9.677 36.296 18.623 56.687 25.736 22.627 8.233 46.423 14.39 71.010 18.142 2.239 0.258 2.441 0.258 2.642 0.258 10.498 0 20.557 1.877 29.86 5.315 11.61 4.773 26.742 9.674 42.271 13.574 17.16 5.653 33.932 7.066 48.763 12.892 6.087 3.088 13.273 4.897 20.881 4.897 11.186 0 21.458-3.911 29.525-10.44 4.796-2.823 10.601-5.723 16.611-8.228 18.611-10.24 36.266-19.598 53.039-31.073 24.011-17.655 46.61-35.31 70.621-52.966 8.474-6.356 17.655-3.354 17.655 6.532 0.798 8.885 1.254 19.22 1.254 29.661s-0.455 20.775-1.347 30.985c-3.609 15.688-8.839 30.666-15.626 44.753-5.891 14.487-15.644 27.699-27.913 38.013-5.449 4.715-2.624 7.54 0.907 9.659 22.246 13.594 43.961 28.248 67.266 39.724 14.792 8.599 27.105 19.842 36.661 33.194 9.413 6.817 15.333 17.368 15.333 29.301 0 0.871-0.032 1.735-0.094 2.591 0.006-0.092 0.006-0.065 0.006-0.038 0 2.638 1.157 5.006 2.992 6.624 12.299 14.495 25.232 27.54 39.105 39.527 9.103 6.032 21.109 13.094 29.23 19.273 15.183 11.652 21.716 28.425 39.371 43.255v10.593c-12.867 14.746-29.912 25.547-49.283 30.57zM870.4 791.393c0.795 0.1 1.715 0.157 2.648 0.157s1.853-0.057 2.757-0.168c0.687 0.12 1.606 0.183 2.54 0.183s1.853-0.062 2.753-0.184c1.515-0.714 2.911-1.601 4.158-2.658-1.204-1.112-2.615-2.012-4.179-2.599-1.674-0.226-3.514-0.339-5.381-0.339s-3.707 0.113-5.514 0.333c-2.4 0.644-4.692 1.55-6.829 2.706 1.971 0.807 4.191 1.704 6.477 2.457zM625.876 807.636h59.321c7.239 0 14.301 0 21.539 0 33.368-1.766 67.090-1.412 99.928-6.179 13.411-2.264 29.411-3.908 45.664-4.566 2.454-0.484 3.927-1.212 5.219-2.169-1.609-1.38-3.497-2.47-5.578-3.123-11.76-0.029-23.412-0.029-35.418-0.029-2.099 0.21-4.537 0.329-7.002 0.329-9.408 0-18.41-1.74-26.701-4.915-2.427-1.21-5.872-2.017-9.504-2.017-7.672 0-14.503 3.598-18.899 9.199-5.87 5.435-13.693 8.736-22.287 8.736-1.306 0-2.594-0.076-3.86-0.224-33.921 0.015-68.172 0.015-102.246 0.015-2.016 0.741-3.73 1.887-5.114 3.348 1.475 0.825 3.209 1.389 5.053 1.59zM754.935 762.439c-0.785-1.191-1.598-2.229-2.488-3.195l-2.456 2.489 3.178 2.472c0.763-0.535 1.407-1.179 1.926-1.917zM747.167 780.094l2.472-3.178c-0.504-0.615-1.086-1.141-1.737-1.571-1.22 0.767-2.258 1.58-3.224 2.47zM742.4 780.094l-2.472 3.354c0.978 0.489 2.121 0.807 3.33 0.882 0.706-1.169 1.253-2.523 1.593-3.957l-2.451-0.102zM308.083 934.93c1.939 0.938 4.19 1.674 6.55 2.095 1.647-0.545 2.896-1.453 3.855-2.61l-4.932-3.546zM318.499 931.752c4.061 0 10.417 2.648 10.77-5.473 0.796 0.166 1.711 0.26 2.648 0.26s1.852-0.095 2.736-0.275c14.25-6.805 26.401-13.861 37.918-21.775 33.18-23.297 62.32-51.314 86.654-83.195 2.282-3.065 4.577-4.654 6.343-6.772s5.473-7.592 8.121-11.299h-7.592c-16.066 0-27.366-1.942-28.778 13.594-22.747 31.574-47.164 59.296-74.014 84.454-9.374 7.294-19.632 14.288-30.295 20.675-2.39 2.040-3.071 3.529-3.377 5.151-4.6 0.065-10.78-3.29-11.309 4.655zM447.912 781.683c-2.313-0.512-4.989-0.831-7.729-0.882-0.994 0.9-1.723 2.028-2.141 3.298 2.001 0.74 4.388 1.296 6.847 1.623 1.298-1.062 2.191-2.351 2.817-3.784zM431.492 778.328l-8.298-3.178c-0.398-0.066-0.857-0.104-1.324-0.104s-0.926 0.038-1.373 0.111c-1.113-0.091-2.469-0.139-3.835-0.139s-2.722 0.048-4.065 0.143c-0.909 0.59-1.801 1.426-2.45 2.433 1.114 1.144 2.464 2.040 3.962 2.648 1.249 0.222 2.595 0.332 3.966 0.332s2.717-0.11 4.028-0.322c3.034-0.157 6.742-1.040 9.213-1.923zM160.486 651.917c19.983 19.135 41.525 37.093 64.253 53.509 25.073 15.884 52.074 29.797 80.27 41.399 23.154 9.473 48.228 18.087 73.879 25.327 11.977 2.606 19.869 3.392 27.944 3.392 1.098 0 2.192-0.015 3.283-0.043-11.598-7.598-25.082-13.155-39.585-15.788-42.726-13.692-78.352-28.701-112.408-46.322-17.664-8.935-36.045-19.967-53.503-32.226-16.238-12.121-31.951-26.599-48.547-40.546 0.65 4.276 2.208 8.096 4.474 11.391zM151.128 634.262v-2.472l-3.178-2.472c-0.801 1.091-1.363 2.407-1.583 3.835 1.316 0.841 2.852 1.452 4.486 1.797zM137.004 289.103c-0.938 1.939-1.674 4.19-2.095 6.55 0.545 1.647 1.453 2.896 2.61 3.855l3.546-4.932zM164.017 344.011c-4.832-8.149-9.379-14.947-14.242-21.496-1.118-1.632-3.060-3.927-4.826-6.046-2.119-5.297 4.943-13.594-5.473-16.243 2.119 5.297-4.943 13.594 5.473 16.243-0.004 0.146-0.006 0.317-0.006 0.49 0 2.684 0.521 5.246 1.467 7.592 5.071 10.986 10.721 21.756 16.371 32.702 0.315 0.943 0.734 1.761 1.256 2.502 1.236-0.76 2.252-1.776 2.96-2.993-0.098-4.676-1.192-9.030-3.063-12.942zM550.665 435.641l4.767-2.648c-2.11-0.985-4.742-2.004-7.445-2.864-1.505 0.436-2.334 1.208-2.955 2.132zM375.879 306.759c27.97 29.786 58.090 56.826 90.367 81.156 18.58 13.153 38.194 25.431 58.466 36.665 6.734 3.225 10.692 4.506 14.81 5.349 1.168 0.165 2.088 0.222 3.022 0.222s1.853-0.057 2.756-0.169c-1.243-2.047-2.657-3.798-4.324-5.267-13.086-7.434-26.681-13.789-39.392-21.911-33.321-23.541-61.77-51.147-85.461-82.545-6.64-6.018-11.726-11.834-15.871-18.31-2.48-8.784-7.071-6.488-13.78-7.018-2.896 0.224-5.544 1.114-7.846 2.516-2.747 1.545-9.103 3.134-2.747 9.313zM321.677 495.492c-2.428-7.194-3.83-15.479-3.83-24.091 0-4.398 0.366-8.711 1.068-12.91-0.063-15.082-0.063-30.266-19.66-34.856-21.366-16.041-35.042-41.324-35.042-69.801 0-13.1 2.894-25.523 8.077-36.667 2.677-7.222 5.945-13.855 9.779-20.104 2.3-1.946 5.423-3.875 8.885-5.082-0.723 2.444-1.576 5.523-2.217 8.68-0.138 0.82-0.174 1.251-0.174 1.69 0 1.642 0.498 3.168 1.352 4.434 1.748 2.090 3.16 5.798 7.75 1.914 4.434-3.368 9.597-6.075 15.176-7.846 8.99-3.923 19.946-7.946 31.17-11.352 27.362-8.425 48.872-17.468 69.313-28.264 3.39-1.941 8.032-5.85 11.74-10.532 0.713-1.38 1.090-2.899 1.090-4.505s-0.376-3.125-1.046-4.472c-2.048-2.955-4.502-5.522-7.307-7.65-7.536-6.748-12.204-16.412-12.204-27.167 0-1.023 0.042-2.036 0.125-3.038-0.263-2.404-0.408-5.349-0.408-8.327 0-10.765 1.893-21.089 5.364-30.655 5.098-9.615-5.142-24.092 5.628-34.685 0.288-1.193 0.453-2.564 0.453-3.972s-0.165-2.779-0.477-4.092c0.266-22.072 2.44-43.591 6.385-64.485 4.87-30.76 11.937-59.739 21.097-87.772-0.578 1.42-0.249-1.628-0.249-4.754s-0.329-6.174-0.954-9.113c-4.774 2.861-8.349 7.243-9.803 12.505-15.883 22.954-31.55 49.251-45.405 76.62-13.336 27.679-22.899 55.418-29.057 84.415-3.22 11.341-5.057 21.663-5.54 32.338-1.419 10.977-3.273 20.312-5.667 29.427-0.129 9.122-4.402 18.778-11.144 26.133-2.088 1.46-3.729 3.499-4.705 5.881 1.203 14.743-9.566 15.626-19.453 17.745-32.386 10.983-60.485 25.274-86.070 42.946 0.059 0.842-0.646 2.776-0.792 4.863 0.74 0.225 1.592 0.334 2.47 0.334s1.73-0.108 2.544-0.313c1.738-1.702 3.764-3.222 5.953-4.492 2.061-0.283 4.272-0.397 6.511-0.397s4.45 0.114 6.63 0.337c-3.099 1.919-5.923 4.038-8.925 5.627-19.117 9.837-35.289 22.683-48.552 38.103-4.583 6.568-8.447 13.846-11.412 21.569-2.358 5.123-3.594 10.243-5.713 14.657-6.179 12.359-8.298 12.359-16.066 0-4.943-7.592-10.24-8.121-14.124 0-8.708 15.524-16.771 33.672-23.156 52.593-7.412 23.395-11.397 47.659-11.623 72.82-0.001 12.297 9.356 22.89 6.002 35.426 1.643 2.348 4.119 4.016 6.992 4.579 13.488 0.011 27.083 0.011 40.501 0.011s28.778 0 43.079 0c8.651 0 4.414-8.121 8.474-10.946s0-5.12-1.942-7.415c-3.708-5.65-15.537-10.946-10.593-16.066s-3.708-11.652 0-14.83c2.242-2.652 3.605-6.11 3.605-9.887s-1.363-7.235-3.624-9.91c-9.339-22.399-2.63-45.528-4.748-68.126 0.907-0.994 2.030-1.776 3.295-2.274 0.862 1.3 1.474 2.838 1.809 4.476 0.016 10.863 0.016 21.809 0.016 32.402 1.226 15.082 6.812 28.662 15.481 39.708 17.534 6.372 11.885 30.383 27.421 38.858-5.826 5.12-6.532 7.945 2.825 7.945s23.658-3.178 31.25 9.357c3.181 0.499 6.85 0.784 10.586 0.784 6.981 0 13.73-0.996 20.112-2.853 7.084-4.111 19.796 5.247 21.385-7.465-1.812-7.156-5.252-13.345-9.913-18.39zM301.727 569.821c-2.103 0.143-4.559 0.225-7.034 0.225-11.28 0-22.164-1.695-32.412-4.845-11.578-4.737-25.879 0.206-40.18-4.737-12.656-2.463-28.432-4.59-44.441-5.895-19.294-4.168-39.95-2.579-58.488-6.64-8.171-2.599-17.6-4.253-27.365-4.586-1.91 0.368-3.445 0.978-4.84 1.8 1.476 1.312 3.11 2.438 4.907 3.27 30.209 3.783 57.117 9.478 83.151 17.203 12.473-4.976 26.95 4.911 42.663 4.735 10.201 0.998 19.501 2.804 28.469 5.393 8.077 1.316 18.494-4.333 26.439 5.024 1.193 0.288 2.564 0.453 3.972 0.453s2.779-0.165 4.092-0.477c22.48 0.726 43.973 2.882 64.999 6.415 21.303 3.436 42.971 10.462 62.983 20.335 4.8 3.299 12.275 5.611 20.291 5.611 1.961 0 3.89-0.138 5.778-0.406l11.789-1.211c-2.472-7.239-8.828-1.589-12.888-3.708-11.123-5.826-22.599-10.77-33.192-17.655-13.788-7.56-29.847-13.073-46.876-15.616-16.118-2.987-33.761-4.655-51.789-4.688zM755.641 465.655c2.295-6.179 4.237-12.712 6.003-17.655l-2.825-5.473c-1.246 0.879-2.299 1.932-3.151 3.137-13.048 25.559-29.907 47.211-50.121 65.17-3.877 2.807-8.089 5.44-12.462 7.817-3.014 2.567-5.109 5.055-6.907 7.757 3.453 3.45 7.87 5.858 12.772 7.006 7.914-1.598 14.691-4.865 20.422-9.397 17.031-15.142 29.735-34.992 36.064-57.512zM784.066 700.469c1.191 0.125 2.573 0.196 3.972 0.196s2.781-0.071 4.143-0.211c1.42 0.228 3.258 0.351 5.126 0.351s3.706-0.122 5.509-0.359c2.463-1.314 4.741-3.029 6.661-5.084-2.43-2.019-5.223-3.736-8.234-5.045-2.832 0.001-5.252 0.71-7.37 1.895-2.494 1.511-5.602 2.43-8.924 2.431-5.12-3.531-10.77-9.534-12.712 0s7.415 4.061 11.829 4.943zM772.414 672.927l-3.178-4.767c-1.039 1.931-1.889 4.169-2.436 6.524 0.451 1.787 1.306 3.155 2.433 4.243zM810.019 692.524c0.992 1.5 2.672 2.475 4.579 2.475 0.066 0 0.132-0.001 0.198-0.003 3.155-1.513 5.882-3.28 8.349-5.346-2.113-2.005-4.504-3.719-7.144-5.002-6.335-1.834-7.041 2.58-6.158 6.994zM787.244 673.28c2.41-0.495 4.543-1.416 6.418-2.688l-7.83-3.845-7.945 4.414c2.708 0.752 5.85 1.258 9.085 1.409zM806.841 673.28c1.962-2.251 3.67-4.805 5.028-7.561-4.038-1.305-8.967-2.178-14.013-2.651-2.067 1.302-3.394 3.026-4.225 5.009 3.403 1.488 7.753 2.937 12.208 4.131zM822.025 663.040c-2.539 0.582-4.778 1.433-6.856 2.543l4.914 3.106 6.003-3.178c-1.050-1.495-2.491-2.651-4.174-3.332zM834.383 657.567c-0.955 0.9-1.684 2.028-2.103 3.298 2.001 0.74 4.388 1.296 6.847 1.623 1.314-1.109 2.211-2.459 2.818-3.957-1.968-0.803-4.346-1.418-6.796-1.815zM854.51 680.519c-4.237 6.532-6.532 0-9.71-0.883-3.395 0.743-6.299 2.497-8.461 4.928-3.545 2.841-7.606-12.343-9.901 0.016-1.412 7.062 5.473 5.12 9.357 5.297 2.826 0.213 6.122 0.334 9.446 0.334s6.619-0.121 9.882-0.36c1.827-1.535 3.669-3.546 4.991-5.889zM929.015 755.553c-13.948-34.251-42.902-49.611-75.211-59.674-2.596-0.683-5.576-1.075-8.648-1.075-7.683 0-14.793 2.454-20.589 6.62-8.546 7.873-17.55 2.047-27.084 7.343-2.552 0.549-5.484 0.863-8.489 0.863-6.399 0-12.465-1.424-17.899-3.973-23.046-6.070-48.117-7.13-68.95-21.254-1.412-0.883-3.178-1.059-4.59-1.942l-17.655-11.299c2.968-0.373 6.403-0.586 9.887-0.586s6.919 0.213 10.291 0.627c5.598-0.040 14.073-10.28 17.251 7.375h-2.472c-0.355-0.208-0.781-0.331-1.236-0.331s-0.881 0.123-1.248 0.337c0.51 0.187 1.086 0.299 1.689 0.299s1.179-0.112 1.71-0.316c0.653-1.364 1.203-2.959 1.536-4.633 5.493 1.643 11.143 3.409 16.793 4.821 1.715-0.41 3.203-1.21 4.423-2.304l-5.836-3.17-4.414-2.648c1.039-1.215 2.339-2.176 3.817-2.8 11.314-0.84 21.688-2.469 31.757-4.883 11.821-2.526 23.215-8.746 32.245-17.41 10.569-9.511 11.276-15.337-5.144-21.517-2.295 0-3.708-4.061-6.003-4.943-6.356-2.472-14.83 3.354-19.774-4.061-1.942-2.825-17.655 1.059-5.12-9.357-6.032-3.806-11.216-7.586-16.135-11.674-7.384-7.987-18.227-13.090-30.263-13.090-0.695 0-1.387 0.017-2.074 0.051-16.734-1.246-32.024-6.944-44.862-15.91-19.53-11.413-42.796-22.578-66.989-31.871-21.211-8.102-36.090-15.219-50.375-23.266-29.123-13.022-65.268-24.512-102.927-31.743-31.203-4.711-56.465-11.86-80.29-21.768 1.614 0.657 1.001 0.581 0.371 0.581-1.97 0-3.766 0.751-5.115 1.982-0.557 1.015-0.889 2.232-0.889 3.526s0.331 2.511 0.914 3.569c8.768 14.154 17.614 26.371 27.241 37.915 17.23 18.72 36.474 36.375 54.483 55.090 9.004 9.357 15.89 20.833 25.247 29.837 3.845 3.26 6.269 8.093 6.269 13.493 0 3.007-0.752 5.839-2.078 8.318-3.632 8.025-11.509 13.651-20.74 14.028-22.67-0.48-44.081-5.105-63.735-13.14-19.123-7.065-42.686-12.387-67.166-14.505-12.757-1.459-23.016-3.319-33.054-5.742-9.203 0.091-19.751-1.438-29.85-4.077-9.431-2.33-22.287-4.566-35.38-6.013-17.074-0.868-31.814-3.271-45.932-7.172-11.65-6.375-26.657 1.216-37.956-9.2-0.695-0.089-1.499-0.14-2.315-0.14-2.736 0-5.339 0.571-7.696 1.6 1.623 3.158 3.094 5.82 4.717 8.376 8.549 11.894 17.005 22.479 25.966 32.608 28.271 32.139 61.316 59.903 98.043 82.206 23.051 14.14 47.512 26.043 73.176 35.452 15.379 5.326 27.208 11.682 39.39 16.802 0.254 0.024 0.549 0.038 0.847 0.038 2.299 0 4.408-0.814 6.055-2.169 0.4-0.696 0.646-1.549 0.646-2.459s-0.246-1.763-0.675-2.495c-2.976-3.875-4.777-8.822-4.777-14.189s1.801-10.314 4.831-14.269c1.122-4.744 1.79-10.255 1.79-15.922s-0.667-11.178-1.928-16.459c0.092 0.263 0.089 0.008 0.089-0.249 0-9.615 3.843-18.333 10.077-24.7 3.312-2.139 7.272-3.589 11.529-4.044-7.238 16.36-11.523 35.473-11.523 55.588 0 7.358 0.573 14.583 1.678 21.631 3.383 10.208 8.628 19.73 15.379 27.971 0.907 0.791 2.147 1.518 3.519 1.949 0.867-1.303 1.479-2.84 1.818-4.477 0.016-9.982 0.016-19.869 0.016-29.756-1.236-15.89 7.592-30.014 6.532-46.433 3.714-8.085 9.388-14.723 16.431-19.492 0.298-0.117 0.454-0.123 0.611-0.123 1.228 0 2.362 0.405 3.275 1.088 0.165 0.351 0.27 0.776 0.27 1.226s-0.105 0.875-0.292 1.252c-1.758 3.868-3.7 7.399-5.289 11.283-3.913 13.235-6.164 28.442-6.164 44.174 0 6.457 0.379 12.825 1.117 19.084 1.011 3.496 3.035 7.182 5.773 10.209 3.688 5.628 7.395 11.454 11.456 17.633 2.22 2.194 4.71 4.122 7.414 5.729 1.176-2.907 1.757-6.367 1.766-9.961-2.013-6.984-3.687-15.369-4.694-23.958-0.073-9.944 3.811-18.419 4.694-28.306-0.403-4.022-0.633-8.693-0.633-13.418s0.23-9.396 0.679-14.002c4.857-12.85 12.866-24.156 23.144-32.866 0.373-0.216 0.677-0.287 0.997-0.287s0.624 0.071 0.896 0.198c0.873 1.276 1.402 2.864 1.402 4.574 0 0.066-0.001 0.131-0.002 0.197-10.394 22.242-16.459 48.304-16.459 75.782 0 1.348 0.015 2.692 0.044 4.033-0.003 11.982 10.59 19.044 11.649 30.344 1.77 3.131 4.216 5.689 7.152 7.541 1.273-2.533 2.25-5.548 2.869-8.692 1.985-26.567 3.75-53.226 5.516-79.003 3.475-14.105 12.053-25.79 23.618-33.238 0.735-0.374 1.342-0.516 1.982-0.516s1.247 0.142 1.792 0.396c0.687 1.039 1.112 2.334 1.112 3.728 0 0.363-0.029 0.719-0.084 1.066-4.429 6.429-7.891 13.971-9.953 22.072-0.105 20.792-8.050 39.86-6.461 60.34 2.556 16.056 11.146 29.74 23.327 38.907 0.392 0.156 0.665 0.182 0.944 0.182 1.040 0 1.995-0.359 2.75-0.961 0.205-1.187 0.327-2.562 0.327-3.966s-0.122-2.778-0.356-4.114c-2.871-6.692-4.551-14.637-4.551-22.976 0-2.243 0.122-4.457 0.358-6.636 2.922-5.488 4.649-12.29 4.649-19.495 0-2.938-0.287-5.809-0.835-8.587-1.896-17.375 10.639-26.203 17.701-38.208 1.621-0.725 3.513-1.148 5.504-1.148 0.549 0 1.090 0.032 1.623 0.095-0.211 2.068-0.716 3.99-1.519 5.747-2.68 2.008-4.924 4.59-6.6 7.538 1.17 19.547-10.13 37.732-5.716 57.329 1.093 7.875 4.109 14.893 8.555 20.768 18.371 21.814 45.294 36.097 75.579 37.66 21.797 0.011 43.513 0.011 65.052 0.011 0.667 0.089 1.439 0.14 2.222 0.14 7.317 0 13.595-4.451 16.272-10.794 3.505-5.436 8.921-9.235 15.252-10.507 6.507-1.261 11.627-0.025 12.863-9.383 4.262-1.234 9.157-1.944 14.217-1.944 0.153 0 0.307 0.001 0.46 0.002 2.448-9.711 10.217-6.533 14.277-3.884 7.728 4.073 16.896 7.958 26.402 11.099 3.834 2.478 7.105 3.753 10.674 3.753s6.839-1.276 9.381-3.396c1.021-0.883 2.391-1.432 3.89-1.432 0.239 0 0.474 0.014 0.705 0.041 8.799 9.884 21.511 4.941 31.928 7.236 10.536 2.96 22.635 4.662 35.131 4.662 15.091 0 29.602-2.481 43.148-7.059 6.819-3.076 6.819-7.666 3.641-15.435zM752.463 689.876c-3.531 0-7.062 0-10.417 0-1.094 0.594-1.988 1.431-2.631 2.443 1.088 1.185 2.447 2.089 3.97 2.653 2.422 0.18 5.166 0.269 7.93 0.269s5.507-0.089 8.227-0.265c2.222-0.45 4.531-1.185 6.699-2.175-3.009-0.984-5.657-2.22-8.482-2.926-1.557-0.548-3.36-0.925-5.231-1.056zM754.759 675.575l-7.062-3.001-1.942 4.59c0.875 0.299 1.883 0.471 2.932 0.471 0.523 0 1.036-0.043 1.536-0.126 1.715-0.767 3.233-1.776 4.545-3.002zM739.399 689.876v-2.472l-3.178-2.472c-0.489 0.978-0.807 2.121-0.882 3.33 1.184 0.362 2.545 0.555 3.952 0.555 0.038 0 0.076 0 0.113 0z" />
<glyph unicode="&#xe90f;" glyph-name="progress" horiz-adv-x="721" d="M292.94 763.051c161.783 0 293.054-141.29 293.054-315.59 0.777-36.754 30.755-66.251 67.622-66.251s66.845 29.497 67.621 66.179c0.001 0.191 0.001 0.332 0.001 0.472 0 103.547-43.757 196.874-113.789 262.498-7.14 7.574-14.557 14.325-22.471 20.466-11.315 8.774-19.323 20.463-23.034 33.934l-2.632 22.673c-13.17 142.312-70.957 172.568-70.957 172.568l-2.895-3.519-0.965-10.587c-8.515-63.237-33.009-95.48-48.081-115.604s-26.339-18.79-26.339-18.79l-49.5-3.378c-196.152-0.055-355.702-156.69-360.455-351.706 4.050 169.856 133.618 306.634 292.818 306.634zM428.299 132.949c-161.783 0-293.054 141.29-293.054 315.59-0.777 36.754-30.755 66.251-67.622 66.251s-66.845-29.497-67.621-66.179c-0.001-0.191-0.001-0.332-0.001-0.472 0-103.547 43.757-196.874 113.789-262.498 7.14-7.574 14.557-14.325 22.471-20.466 11.315-8.774 19.323-20.463 23.034-33.934l2.603-22.673c13.17-142.312 70.957-172.568 70.957-172.568l3.037 3.519 0.965 10.587c8.515 63.237 33.009 95.48 48.081 115.604s26.339 18.79 26.339 18.79l49.301 3.378c196.171 0.056 355.733 156.723 360.455 351.765-3.937-169.973-133.391-306.693-292.733-306.693z" />
<glyph unicode="&#xe910;" glyph-name="winter" d="M862 576c-53 0-96-43-96-96 0-11.292 2.334-21.916 5.876-32h-613.876c-17.666 0-32-14.334-32-32s14.334-32 32-32h704c53 0 96 43 96 96s-43 96-96 96zM158 512h384c53 0 96 43 96 96s-43 96-96 96-96-43-96-96c0-11.292 2.334-21.916 5.876-32h-293.876c-17.666 0-32-14.334-32-32s14.334-32 32-32zM670 320c-1.876 0-3.668-0.416-5.582-0.582-1.25 0.082-2.292 0.582-3.542 0.582h-493.708c-22.75 0-41.168-14.334-41.168-32s18.418-32 41.168-32h412.708c-3.542-10.084-5.876-20.752-5.876-32 0-53 43-96 96-96s96 43 96 96-43 96-96 96z" />
<glyph unicode="&#xe911;" glyph-name="external-link" horiz-adv-x="768" d="M640 192h-512v510.094l128 1.906v128h-256v-768h768v320h-128v-192zM384 832l128-128-192-192 128-128 192 192 128-128v384h-384z" />
<glyph unicode="&#xe912;" glyph-name="elections" d="M31.104 542.176c45.728 220 234.656 385.024 460.992 385.024 226.368 0 415.296-164.992 460.992-384.992h-921.984zM530.208 752.32l-36.544 74.56-37.568-74.56h-73.568l58.528-58.016-15.552-78.4 66.048 32.224 74.496-31.68-22.944 75.168 60.64 60.736h-73.536zM224.288 42.272c-88.128 65.152-159.456 164.896-187.968 276.16h187.968v-276.16zM287.872 383.488h-32.544v128.16h32.544v-128.16zM320.416 511.648h30.528v-128.16h-30.528v128.16zM320.416 352.96h-32.544v30.528h32.544v-30.528zM446.016-46.496c-45.6 4.672-87.264 16.128-128.128 33.184v331.744h128.128v-364.928zM416 352.96v30.528h32.544v-30.528h-32.544zM383.456 383.488v95.616h32.544v-95.616h-32.544zM416 511.648h32.544v-32.544h-32.544v32.544zM479.104 479.136v-95.616h-30.56v95.616h30.56zM607.232 511.648v-32.544h-30.528v-126.144h-32.544v126.144h-32.544v32.544h95.616zM671.776-11.040c-40.8-17.632-82.496-29.664-128.16-34.784v364.256h128.16v-329.472zM639.776 511.648h95.552v-32.544h-63.072v-32.544h63.072v-32.576h-63.072v-30.528h63.072v-30.528h-95.552v158.72zM767.328 46.368v272.064h180.512c-27.936-108.928-95.104-207.008-180.512-272.064z" />
<glyph unicode="&#xe913;" glyph-name="leads" d="M881.6 905.2h-101.4c-20.8 0-37.8-17-37.8-37.8v-101.4c0-20.8 17-37.8 37.8-37.8h29.2v-201.8c0-15.4-11.2-27.8-24.8-27.8h-251.2v229.6h29.2c20.8 0 37.8 17 37.8 37.8v101.4c0 20.8-17 37.8-37.8 37.8h-101.4c-20.8 0-37.8-17-37.8-37.8v-101.4c0-20.8 17-37.8 37.8-37.8h29.2v-229.6h-251.2c-13.6 0-24.8 12.4-24.8 27.8v201.8h29.2c20.8 0 37.8 17 37.8 37.8v101.4c0 20.8-17 37.8-37.8 37.8h-101.2c-20.8 0-37.8-17-37.8-37.8v-101.4c0-20.8 17-37.8 37.8-37.8h29.2v-201.8c0-39 30.4-70.6 67.6-70.6h251.4v-117h-85.4c-39 0-70.6-31.6-70.6-70.6v-206.8c0-39 31.6-70.6 70.6-70.6h213.8c39 0 70.6 31.6 70.6 70.6v206.8c0 39-31.6 70.6-70.6 70.6h-85.4v117h251.4c37.2 0 67.6 31.6 67.6 70.6v201.8h29.2c20.8 0 37.8 17 37.8 37.8v101.4c-0.2 20.8-17.2 37.8-38 37.8zM646.6 61.4c0-15.4-12.4-27.8-27.8-27.8h-213.6c-15.4 0-27.8 12.4-27.8 27.8v206.8c0 15.4 12.4 27.8 27.8 27.8h213.8c15.4 0 27.8-12.4 27.8-27.8v-206.8h-0.2z" />
<glyph unicode="&#xe914;" glyph-name="url" d="M876.8 807.822c-97.422 98.133-226.844 152.178-364.8 152.178s-267.378-54.044-364.089-151.467c-96.711-98.133-149.333-228.267-147.911-366.222 1.422-134.4 54.756-260.978 150.044-356.978 96-96 224.711-149.333 361.956-149.333v0c136.533 0 265.244 53.333 361.244 149.333 95.289 95.289 148.622 221.156 150.756 355.556 2.133 137.956-50.489 268.089-147.2 366.933zM978.489 471.467h-196.267c-0.711 54.044-4.978 107.378-13.511 163.556h68.978c33.422 0 66.133 0 99.556 0 2.133 0 2.133 0 3.556-2.133 17.778-41.956 29.156-82.489 34.844-123.733 1.422-9.956 2.133-19.2 2.844-29.867-0.711-2.133-0.711-4.978 0-7.822zM977.778 424.533c0 0 0 0 0 0 0-4.267 0-8.533-0.711-12.8-4.267-50.489-17.067-100.978-38.4-150.044 0 0 0-0.711 0-0.711s0 0 0 0c-44.089 0-87.467 0-131.556 0h-38.4c8.533 55.467 12.8 108.8 13.511 163.556h195.556zM695.467 19.2c28.444 56.178 49.067 118.756 65.422 195.556h155.022c-54.044-89.6-128-155.022-220.444-195.556zM537.6 681.244v233.244c3.556 0 6.4-0.711 9.956-0.711 12.089-1.422 23.467-2.133 34.844-3.556 11.378-2.133 22.756-4.267 34.133-7.111 5.689-1.422 11.378-2.844 17.067-3.556 2.133-0.711 2.844-0.711 4.267-3.556 29.156-49.778 50.489-106.667 68.978-177.778 2.133-9.244 4.267-18.489 6.4-27.022 0.711-2.844 1.422-5.689 2.133-9.244h-177.778zM763.733 681.244c-1.422 0-2.133 0-2.844 0 0 0.711-0.711 2.133-0.711 2.844-11.378 58.311-27.733 110.222-48.356 158.578-4.267 9.956-9.244 20.622-14.222 30.578-0.711 1.422-1.422 3.556-2.133 4.978 94.578-41.244 167.111-105.244 221.156-196.978h-152.889zM537.6 471.467v163.556h184.889c8.533-55.467 12.8-108.8 13.511-163.556h-198.4zM727.467 302.222c-0.711-4.978-1.422-9.956-2.133-14.933-1.422-8.533-2.133-17.067-3.556-26.311 0 0 0 0 0 0s-0.711 0-0.711 0c-16.356 0-32.711 0-49.067 0h-134.4v163.556h198.4c-1.422-44.8-4.267-84.622-8.533-122.311zM713.956 214.756c0-1.422-0.711-2.133-0.711-3.556-1.422-7.111-2.844-13.511-4.267-20.622-15.644-65.422-33.422-117.333-57.6-163.556-4.978-9.244-9.956-18.489-15.644-27.733-0.711-1.422-2.133-2.133-2.844-2.844-30.578-7.822-61.867-12.8-91.733-14.222-1.422 0-2.844 0-4.267 0v231.822h177.067zM85.333 640.711v-5.689c41.244 0 81.778 0 123.022 0h51.911c-8.533-56.178-12.8-109.511-13.511-163.556h-200.533c0 0.711 0 2.133 0 2.844 0 5.689 0.711 12.089 1.422 17.778 4.267 47.644 17.067 95.289 36.267 141.511 0.711 0.711 0.711 1.422 0.711 1.422s0.711 0 0.711 0v5.689zM314.311 681.244c0.711 4.267 1.422 7.822 2.133 12.089 16.356 73.244 36.978 132.267 64.711 184.889 3.556 6.4 7.111 12.8 10.667 18.489 0.711 0.711 1.422 1.422 2.133 2.133 32 8.533 59.022 12.8 83.2 14.222 4.267 0 8.533 0.711 12.8 0.711 0 0 0 0 0 0v-232.533h-175.644zM440.178 260.978c-44.089 0-88.178 0-132.978 0-0.711 0-0.711 0-1.422 0 0 0 0 0.711 0 0.711-1.422 12.8-2.844 26.311-4.267 38.4-2.133 19.2-4.267 38.4-6.4 57.6-1.422 14.933-2.133 30.578-2.133 46.222 0 6.4-0.711 13.511-0.711 19.911 0 0 0 0.711 0 0.711h198.4v-163.556c0 0 0 0-0.711 0h-49.778zM331.378 872.533c-6.4-13.511-12.8-27.022-18.489-40.533-19.2-45.511-33.422-95.289-44.8-151.467-36.978 0-73.956 0-110.933 0h-49.067c54.044 92.444 128.711 157.867 226.133 198.4-1.422-2.133-2.133-4.267-2.844-6.4zM260.267 260.978h-71.822c-33.422 0-66.844 0-100.267 0-2.133 0-2.844 0-3.556 2.133-18.489 43.378-30.578 86.756-36.267 130.844-0.711 7.822-1.422 16.356-2.133 24.889 0 2.133 0 4.267-0.711 5.689h201.244c0.711-55.467 5.689-109.511 13.511-163.556zM268.089 214.756c16.356-77.511 36.978-140.8 66.133-196.978-96.711 39.822-170.667 104.533-226.133 196.978h160zM490.667 214.756v-232.533c-0.711 0-1.422 0-2.844 0-5.689 0-11.378 0-17.067 1.422-16.356 2.844-33.422 5.689-49.778 8.533-8.533 1.422-16.356 2.844-24.889 4.267-1.422 0-2.844 0.711-4.267 3.556-27.733 47.644-49.067 100.978-66.844 169.244-2.844 11.378-5.689 23.467-8.533 35.556-0.711 3.556-1.422 6.4-2.133 9.956h176.356zM491.378 635.022v-163.556h-198.4c-1.422 23.467 5.689 118.756 13.511 163.556h184.889z" />
<glyph unicode="&#xe915;" glyph-name="loading" d="M451 731.6c145.6 0 263.8-127.2 263.8-284 0.6-33.6 28.4-60.4 62.2-59.6 32.6 0.6 59 27 59.6 59.6 0 89.8-37 175.4-102.6 236.8-6.4 6.8-13.2 13-20.4 18.6-10 7.8-17.2 18.4-20.4 30.6l-2.2 20c-11.8 128-63.8 155.4-63.8 155.4l-2.6-3.2-0.8-9.6c-7.6-57-29.8-86-43.2-104s-23.8-17-23.8-17l-44.8-3c-176.2 0-320.2-140.8-324.4-317 3.6 153.2 120.2 276.4 263.4 276.4zM573 164.4c-145.6 0-263.8 127.2-263.8 284-0.6 33.6-28.4 60.4-62.2 59.6-32.6-0.6-59-27-59.6-59.6 0-89.8 37-175.4 102.6-236.8 6.4-6.8 13.2-13 20.4-18.6 10-7.8 17.2-18.4 20.4-30.6l2.2-20c11.8-128 63.8-155.4 63.8-155.4l2.8 3.2 0.8 9.6c7.6 57 29.8 86 43.2 104 13.6 18.2 23.8 17 23.8 17l44.2 3c176.2 0 320.2 140.8 324.4 317-3.2-153.2-119.6-276.4-263-276.4z" />
<glyph unicode="&#xe916;" glyph-name="settings" d="M471.6 768.2c0 3.8 0 20.8 0 23.6 0 22.6-13.8 40.2-34.4 40.2-35.6 0-71 0-106 0-20.6 0-34-17.4-34-39.8 0-3.4 0-20.8 0-24.6-44.2 0-125.8 0-169.2 0 0-32.2 0-31 0-63.6 43.8 0 126 0 169.6 0 0-3.8 0-21.2 0-24 0-21.8 13.4-37.4 32.8-37.8 36.2-0.4 72.6-0.4 108.6 0 19.4 0.4 32.8 16 32.8 37.8 0 3.4 0 20.8 0 24.6 130.8 0 294.4 0 424.4 0 0 32.2 0 31.4 0 63.6-130.6 0-294.2 0-424.6 0zM431.6 690.4h-93.2v93.2h93.2v-93.2zM552.4 513.2c0-3.8 0-20.8 0-23.6 0-22.6 13.8-40.2 34.4-40.2 35.6 0 71 0 106 0 20.6 0 34 17.4 34 39.8 0 3.4 0 20.8 0 24.6 44.2 0 125.8 0 169.2 0 0 32.2 0 31 0 63.6-43.8 0-126 0-169.6 0 0 3.8 0 21.2 0 24 0 21.8-13.4 37.4-32.8 37.8-36.2 0.4-72.6 0.4-108.6 0-19.4-0.4-32.8-16-32.8-37.8 0-3.4 0-20.8 0-24.6-130.8 0-294.4 0-424.4 0 0-32.2 0-31.4 0-63.6 130.6 0 294.2 0 424.6 0zM592.4 591h93.2v-93.2h-93.2v93.2zM471.6 383c0 3.8 0 20.8 0 23.6 0 22.6-13.8 40.2-34.4 40.2-35.6 0-71 0-106 0-20.6 0-34-17.4-34-39.8 0-3.4 0-20.8 0-24.6-44.2 0-125.8 0-169.2 0 0-32.2 0-31 0-63.6 43.8 0 126 0 169.6 0 0-3.8 0-21.2 0-24 0-21.8 13.4-37.4 32.8-37.8 36.2-0.4 72.6-0.4 108.6 0 19.4 0.4 32.8 16 32.8 37.8 0 3.4 0 20.8 0 24.6 130.8 0 294.4 0 424.4 0 0 32.2 0 31.4 0 63.6-130.6 0-294.2 0-424.6 0zM431.6 305.2h-93.2v93.2h93.2v-93.2zM552.4 127.8c0-3.8 0-20.8 0-23.6 0-22.6 13.8-40.2 34.4-40.2 35.6 0 71 0 106 0 20.6 0 34 17.4 34 39.8 0 3.4 0 20.8 0 24.6 44.2 0 125.8 0 169.2 0 0 32.2 0 31 0 63.6-43.8 0-126 0-169.6 0 0 3.8 0 21.2 0 24 0 21.8-13.4 37.4-32.8 37.8-36.2 0.4-72.6 0.4-108.6 0-19.4-0.4-32.8-16-32.8-37.8 0-3.4 0-20.8 0-24.6-130.8 0-294.4 0-424.4 0 0-32.2 0-31.4 0-63.6 130.6 0 294.2 0 424.6 0zM592.4 205.6h93.2v-93.2h-93.2v93.2z" />
<glyph unicode="&#xe917;" glyph-name="code" d="M761.824 339.264h-56.256v-18.752h56.256v18.752zM551.936 283.008v-18.752h56.256v-18.752h18.752v75.008h-18.752v-37.504h-56.256zM551.936 208h37.504v18.752h-37.504v-18.752zM589.44 226.752h18.752v18.752h-18.752v-18.752zM551.936 320.512h-18.752v-37.504h18.752v37.504zM448 704h-64v-320h64v320zM512 704h-32v-320h32v320zM705.568 208h56.256v18.752h-56.256v-18.752zM608.192 339.264h-56.256v-18.752h56.256v18.752zM780.576 226.752v93.76h-18.752v-93.76h18.752zM800 704h-32v-320h32v320zM398.336 245.504h-18.752v-18.752h18.752v18.752zM640 704h-64v-320h64v320zM704 704h-32v-320h32v320zM686.816 226.752h18.752v93.76h-18.752v-93.76zM225.984 208h93.76v18.752h-75.008v18.752h-18.752v-37.504zM225.984 301.76h18.752v18.752h-18.752v-18.752zM263.488 264.256h37.504v18.752h-37.504v-18.752zM417.088 283.008v-18.752h37.504v18.752h-37.504zM244.736 339.264v-18.752h56.256v18.752h-56.256zM256 704h-32v-320h32v320zM960 832h-896c-35.328 0-64-28.672-64-64v-640c0-35.328 28.672-64 64-64h896c35.328 0 64 28.672 64 64v640c0 35.328-28.672 64-64 64zM960 128h-896v640h896v-640zM192 704h-64v-512h64v512zM244.736 245.504h18.752v18.752h-18.752v-18.752zM473.344 320.512h-18.752v-37.504h18.752v37.504zM398.336 339.264v-18.752h56.256v18.752h-56.256zM319.744 283.008v37.504h-18.752v-37.504h18.752zM379.584 301.76h18.752v18.752h-18.752v-18.752zM352 704h-32v-320h32v320zM473.344 264.256h-18.752v-37.504h18.752v37.504zM454.592 208v18.752h-56.256v-18.752h56.256zM896 704h-64v-512h64v512z" />
<glyph unicode="&#xe918;" glyph-name="seat" d="M768.2 384c-150.2 0-361.2 0-511.6 0 0 3.6 0 6.6 0 10 0 114.6 0.2 227.2 0 341.8 0 39.6 18.4 67.4 52.2 86.2 12.2 6.6 53.4 9.2 67 9.2 89.2 0.2 212.4 0 301.4 0 55.8 0 92-52.2 91.6-93.4-1.4-115-0.4-228-0.4-343.2-0.2-3.6-0.2-6.8-0.2-10.6zM896.2 320.8c0-92.4 0-228 0-320-44.4 0-82.8 0-127.8 0 0 45.6 0 91.4 0 137.6-150.2 0-361.6 0-511.8 0 0-45.6 0-91.4 0-137.6-45 0-83.4 0-128 0 0 92 0 228 0 320 239.2 0 528.2 0 767.6 0zM192 512c0-42.8 0-85 0-128-42.8 0-85 0-128 0 0 42.8 0 85 0 128 43 0 85.2 0 128 0zM832 384c0 42.8 0 85 0 128 42.8 0 85 0 128 0 0-42.8 0-85 0-128-43 0-85.4 0-128 0z" />
<glyph unicode="&#xe919;" glyph-name="specialty" d="M512.2 129c-101 0-202.4 0.2-303.4-0.2-19.8 0-37.8 5-52.6 18.6-17.6 16.2-28.6 36.6-28 62 0 1.6 0 3.4 0 5 0 158.2 0 316.2-0.2 474.4 0 39 33.2 75.4 70.8 77.4 5.4 0.4 10.8 0.4 16.2 0.6 70.8 0 141.4 0 212.2 0.2 5.6 0 9.2-1.6 13-5.8 22.6-23.6 45.4-47 67.8-70.4 2.8-3.2 5.8-4.2 10-4.2 99.4 0.2 199.2-0.2 298.6 0.2 41 0.2 69.8-28.8 78-64.6 1-4.4 1.4-9 1.4-13.4 0-133.8 0-267.8 0-401.6 0-39-33.2-75.4-70.8-77.4-5.2-0.4-10.4-0.4-15.6-0.4-98.8-0.4-198.2-0.4-297.4-0.4zM740.8 248.6c-0.4 2.4-0.6 3.6-0.8 4.8-9.2 40.2-18.8 80.8-28.2 121-1 4.4-0.6 7.4 3 10.6 20.8 18.2 41 37 61.6 55.4 10.8 9.6 21.2 19.2 32.8 29.8-9.8 1-18.2 1.8-26.6 2.6-32.6 2.8-65.4 5.8-98 8.4-4.2 0.4-5.8 2.2-7.2 5.8-15.8 37.8-31.6 75.8-47.6 113.6-0.8 1.4-1.4 3-2.6 5.2-1-2.6-1.8-4-2.4-5.6-15.2-36-30.6-71.8-45-108.2-3.6-9.2-8.8-11.2-17.2-11.8-31.2-2.2-62.6-5-94-7.8-7.4-0.6-14.8-1.4-23.2-2.4 2.4-2.2 3.8-3.6 5-4.6 29.6-26.8 59.2-53.8 89.2-80.4 3.4-3.2 4.4-5.8 3.4-10.6-7.2-30.2-14.2-60.2-21-90.2-2.6-11.6-5.4-23.2-8.2-35.8 3.2 1.8 5.2 3 7.4 4.2 33.8 20.6 67.6 41 101.2 61.8 3.4 2 6 2.4 9.6 0.2 10.4-6.6 20.8-13 31.4-19.2 25.6-15.4 50.8-30.8 77.4-46.8z" />
<glyph unicode="&#xe91a;" glyph-name="vendor" d="M128 576v60h47.6v97.2h47.4v34.8h577v-34h45.8v-98h49.4v-60h-145.4v30h-48.4v-30h-94.4v30h-48.4v-30h-94.6v30.8h-48v-30.8h-95v30.8h-47.8v-30.8zM832 468.8h-640v-340.8h384v256h128v-256h128v340.8zM511.6 256h-191.6v128.6h191.6v-128.6z" />
<glyph unicode="&#xe91b;" glyph-name="master-template" d="M254.6 832h-61.8v-209.4h-64.8v-86.8h64.8v-471.8h61.8v471.8h65.4v86.8h-65.4zM446.6 832h-61.8v-488.6h-65.2v-86.8h65.2v-192.6h61.8v192.6h65.4v86.8h-65.4zM638.6 832h-62v-219.6h-63.4v-86.8h63.4v-461.6h62v461.6h65v86.8h-65zM896 360.8h-65.2v471.2h-62v-471.2h-65.2v-86.8h65.2v-210h62v210h65.2z" />
<glyph unicode="&#xe91c;" glyph-name="upload" d="M902.2 313.257c-13.8 13.8-31.6 21.2-51.2 21.2h-216.2l-6.8-18.2c-4.6-12-12-21.8-22.8-29.6-10.4-7.6-21.6-11.2-34.4-11.2h-118c-12.8 0-24 3.6-34.4 11.2-10.8 7.8-18.2 17.6-22.8 29.6l-6.8 18.2h-216.6c-19.6 0-37.4-7.4-51.2-21.2s-21.2-31.6-21.2-51.2v-147.6c0-19.6 7.4-37.4 21.2-51.2s31.6-21.2 51.2-21.2h679c19.6 0 37.4 7.4 51.2 21.2s21.2 31.6 21.2 51.2v147.6c-0.2 19.6-7.4 37.4-21.4 51.2zM720.2 127.457c-8.6-8.6-19.4-13.2-31.4-13.2s-22.8 4.6-31.4 13.2-13.2 19.4-13.2 31.4 4.6 22.8 13.2 31.4 19.4 13.2 31.4 13.2 22.8-4.6 31.4-13.2 13.2-19.4 13.2-31.4-4.6-22.8-13.2-31.4zM838.2 127.457c-8.6-8.6-19.4-13.2-31.4-13.2s-22.8 4.6-31.4 13.2-13.2 19.4-13.2 31.4 4.6 22.8 13.2 31.4c8.6 8.6 19.4 13.2 31.4 13.2s22.8-4.6 31.4-13.2 13.2-19.4 13.2-31.4-4.6-22.8-13.2-31.4zM567.4 334.257h-110.8c-15 0-28.6 5.6-39.2 16.4-10.8 10.8-16.4 24.4-16.4 39.2v166h-83c-23.2 0-42 12.4-51.2 34.2-9.6 22-5 44 12.2 60.8l193.4 194c10.4 10.8 24.2 16.6 39.6 16.6s29-5.8 39.6-16.6l193.6-193.6c17.2-16.8 21.6-39 12.2-60.8-9.2-21.8-28-34.2-51.2-34.2h-82.8v-166c0-15-5.6-28.6-16.4-39.2-11-11-24.6-16.8-39.6-16.8zM567.4 390.657v0 0zM705 610.857v0 0zM707 612.057v0 0zM317 612.057v0 0z" />
<glyph unicode="&#xe91d;" glyph-name="information" d="M512 950.857c-282.8 0-512-229.2-512-512s229.2-512 512-512 512 229.2 512 512-229.2 512-512 512zM559.6 127.057h-95.8v450.8h95.8v-450.8zM551.8 658.857c-9.4-9.4-22.4-14-39.4-14-17.4 0-30.8 4.6-40.2 14s-14 22.2-14 38.6c0 17.2 4.6 30.2 14 39.6 9.4 9.2 22.8 13.8 40.2 13.8 16.8 0 30-4.6 39.4-13.8s14-22.4 14-39.6c0-16.4-4.6-29.2-14-38.6z" />
<glyph unicode="&#xe91e;" glyph-name="form" d="M960 895c0-42.2 0-84 0-126.4-298.4 0-596.4 0-895.2 0 0 42 0 84 0 126.4 298 0 596.2 0 895.2 0zM959.2 127c0-42.6 0-84.6 0-127-298.4 0-596.4 0-895.2 0 0 42 0 84.2 0 127 297.8 0 596 0 895.2 0zM64.8 385.2c0 42.6 0 84.4 0 127.4 298.6 0 596.6 0 895.2 0 0-42.4 0-84.2 0-127.4-298.2 0-596.2 0-895.2 0zM768 704c0-43.4 0-85.2 0-128-170.4 0-340.6 0-511.6 0 0 42.2 0 85 0 128 170.8 0 340.6 0 511.6 0zM256.6 192c0 42.6 0 84.6 0 127 170.4 0 340.6 0 511.6 0 0-42.2 0-84.4 0-127-170.4 0-340.4 0-511.6 0z" />
<glyph unicode="&#xe91f;" glyph-name="letter" d="M80.589 702.157c24.986-13.414 371.098-199.373 384-206.285s29.594-10.189 46.387-10.189c16.794 0 33.485 3.277 46.387 10.189s359.014 192.87 384 206.285c25.037 13.466 48.691 65.843 2.765 65.843h-866.253c-45.926 0-22.272-52.378 2.714-65.843zM952.986 589.363c-28.416-14.797-378.214-197.069-395.622-206.182s-29.594-10.189-46.387-10.189-28.979 1.075-46.387 10.189-365.21 191.437-393.626 206.234c-19.968 10.445-19.763-1.792-19.763-11.213s0-373.402 0-373.402c0-21.504 28.979-51.2 51.2-51.2h819.2c22.221 0 51.2 29.696 51.2 51.2 0 0 0 363.93 0 373.35s0.205 21.658-19.814 11.213z" />
<glyph unicode="&#xe920;" glyph-name="my-courses" d="M576 832h320v-320h-320v320zM128 832h320v-320h-320v320zM576 384h320v-320h-320v320zM128 384h320v-320h-320v320z" />
<glyph unicode="&#xe921;" glyph-name="all-courses" d="M640 64c-170.8 0-341.4 0-512 0 0 149.4 0 298.6 0 448 170.6 0 341.2 0 512 0 0-149.2 0-298.4 0-448zM896 768c0-142 0-283.6 0-425.6-20 0-43.6 0-64 0 0 121.6 0 239.6 0 361.6-173.4 0-402.8 0.2-576.2 0.2v64c192.8-0.2 447.4-0.2 640.2-0.2zM768 642c0-142 0-283.6 0-425.6-19 0-44.8 0-64 0 0 121.6 0 237.6 0 359.6-164 0-347.8 0-512 0v66c182.2 0 393.6 0 576 0z" />
<glyph unicode="&#xe922;" glyph-name="templates" d="M128 832v-768h768v768h-768zM767.8 192.2h-511.8v192h511.8v-192zM767.8 512h-511.8v192h511.8v-192z" />
<glyph unicode="&#xe923;" glyph-name="edit" d="M245.2 22.8l61.6 61.6-158.8 158.8-61.6-61.6v-72.4h86.4v-86.4h72.4zM599.2 650c0 9.8-4.8 15-15 15-4.6 0-8.6-1.6-11.4-4.8l-366.4-366.2c-3-3-4.8-7-4.8-11.4 0-9.8 4.8-15 15-15 4.6 0 8.6 1.6 11.4 4.8l366.2 366.2c3.2 3.2 5 7 5 11.4zM562.6 779.8l281-281-562.2-562.4h-281.4v281l562.6 562.4zM1024.2 715.2c0-23.8-8.6-44.4-25-60.8l-112.4-112.4-280.8 281 112.4 111.6c16 17 36.6 25.6 60.8 25.6 23.8 0 44.6-8.6 61.6-25.6l158.8-158c16.2-17.6 24.6-38.2 24.6-61.4z" />
<glyph unicode="&#xe924;" glyph-name="remove" d="M731.2 308.857c0 10-3.6 18.6-11 25.8l-104 104 104 104c7.2 7.2 11 16 11 25.8 0 10.4-3.6 19.2-11 26.4l-51.8 51.8c-7.2 7.2-16.2 11-26.4 11-10 0-18.6-3.6-25.8-11l-104-104-104 104c-7.2 7.2-16 11-25.8 11-10.4 0-19.2-3.6-26.4-11l-51.8-51.8c-7.2-7.2-11-16.2-11-26.4 0-10 3.6-18.6 11-25.8l104-104-104-104c-7.2-7.2-11-16-11-25.8 0-10.4 3.6-19.2 11-26.4l51.8-51.8c7.2-7.2 16.2-11 26.4-11 10 0 18.6 3.6 25.8 11l104 104 104-104c7.2-7.2 16-11 25.8-11 10.4 0 19.2 3.6 26.4 11l51.8 51.8c7.2 7.2 11 16 11 26.4zM953.6 438.857c0-80.2-19.8-154-59.2-221.8-39.4-67.6-93-121.2-160.8-160.8-67.6-39.4-141.4-59-221.6-59s-154 19.8-221.8 59.2c-67.6 39.4-121.2 93-160.8 160.8s-59 141.4-59 221.6 19.8 154 59.2 221.8 93 121.2 160.8 160.8 141.4 59 221.6 59 154-19.8 221.8-59.2 121.2-93 160.8-160.8c39.4-67.6 59-141.4 59-221.6z" />
<glyph unicode="&#xe925;" glyph-name="reorder-lists" d="M242.2 704l270 192.6 269.6-192.6zM242.2 192h539.6l-270-192.6zM676.2 351.8h-328.4c-50.6 0-92 41.4-92 92v12.6c0 50.6 41.4 92 92 92h328.4c50.6 0 92-41.4 92-92v-12.6c0-50.6-41.4-92-92-92z" />
<glyph unicode="&#xe926;" glyph-name="upload-line" d="M688.6 203.257c-12 0-22.8-4.6-31.4-13.2s-13.2-19.4-13.2-31.4 4.6-22.8 13.2-31.4c8.6-8.6 19.4-13.2 31.4-13.2s22.8 4.6 31.4 13.2c8.8 8.8 13.2 19.4 13.2 31.4s-4.6 22.8-13.2 31.4c-8.6 8.6-19.4 13.2-31.4 13.2zM698.8 148.457c-3-3-6.2-4.4-10.2-4.4s-7.2 1.4-10.2 4.4-4.4 6.2-4.4 10.2 1.4 7.2 4.4 10.2 6.2 4.4 10.2 4.4 7.2-1.4 10.2-4.4 4.4-6.2 4.4-10.2c0-4.2-1.2-7-4.4-10.2zM806.8 203.257c-12 0-22.8-4.6-31.4-13.2s-13.2-19.4-13.2-31.4 4.6-22.8 13.2-31.4c8.6-8.6 19.4-13.2 31.4-13.2s22.8 4.6 31.4 13.2l0.2 0.2c8.6 9 13 19.4 13 31.2 0 12-4.6 22.8-13.2 31.4s-19.4 13.2-31.4 13.2zM817 148.457c-3-3-6.2-4.4-10.2-4.4s-7.2 1.4-10.2 4.4-4.4 6.2-4.4 10.2 1.4 7.2 4.4 10.2 6.2 4.4 10.2 4.4 7.2-1.4 10.2-4.4 4.4-6.2 4.4-10.2-1.4-7-4.4-10.2zM902.6 313.257c-13.8 13.8-31.6 21.2-51.2 21.2h-216.2l-6.8-18c-4.8-12.2-12.2-22-22.8-29.8-10.4-7.6-21.8-11.2-34.6-11.2h-118c-12.8 0-23.8 3.6-34.8 11.4-10.8 7.6-18.2 17.2-22.6 29.4l-6.8 18.2h-216.6c-19.6 0-37.4-7.4-51.2-21.2s-21.2-31.6-21.2-51.2v-147.6c0-19.6 7.4-37.4 21.2-51.2s31.6-21.2 51.2-21.2h678.8c19.6 0 37.4 7.4 51.2 21.2s21.2 31.6 21.2 51.2v147.6c0 20.2-7 37.4-20.8 51.2zM867.4 114.457c0-4.8-1.4-8.2-4.8-11.6s-6.8-4.8-11.6-4.8h-678.8c-4.8 0-8.2 1.4-11.6 4.8s-4.8 6.8-4.8 11.6v147.6c0 4.8 1.4 8.2 4.8 11.6s6.8 4.8 11.6 4.8h179.4c8.4-14.6 19.8-27 34-37.2 20.2-14.4 43-21.8 67.2-21.8h118c24.6 0 47.4 7.4 67.4 22 14 10.2 25.4 22.6 33.8 37h179.4c4.8 0 8.2-1.4 11.6-4.8 2.6-2.6 4.4-5.6 4.4-11.6v-147.6zM318 556.057h83.2v-166c0-15 5.6-28.4 16.4-39.2s24.2-16.4 39.2-16.4h110.8c15 0 28.4 5.6 39.2 16.4s16.4 24.2 16.4 39.2v166h82.8c23.2 0 42 12.6 51.4 34.4v0c9.4 22.2 4.8 44.2-12.6 61l-193.6 193.4c-10.6 10.8-24.2 16.6-39.4 16.6s-28.8-5.8-39.4-16.6l-193.8-193.8c-17.2-17-21.6-39.2-12-61 9.6-21.6 28.2-34 51.4-34zM511.8 805.057l193-193h-137.6v-221.6h-110v221.6h-138.4l193 193z" />
<glyph unicode="&#xe927;" glyph-name="cv" d="M73.4 438.857c0 35 6.2 66.8 18.6 95.4 12.4 28.4 29.4 52.8 50.8 73s46.8 35.8 75.8 46.8c29.2 11 60.2 16.4 93.2 16.4 33.8 0 65.8-5.4 96-16.4s55.4-25.6 75.6-44.2l-90.6-109c-8.2 10.8-18.6 18.8-31 24.4s-26.2 8.4-41.4 8.4c-12.4 0-24-2.2-34.6-6.6-10.8-4.4-20.2-10.6-28.2-18.8s-14.4-18.2-18.8-30c-4.6-11.8-6.8-24.8-6.8-39.4 0-14.4 2.4-27.4 7.2-38.6 4.8-11.4 11.2-21.2 19.2-29.4s17.4-14.6 28.2-18.8c10.8-4.4 22-6.6 34-6.6 17 0 31.4 3.6 43.6 10.6s21.8 15.2 28.8 24.8l90.4-108.4c-19.8-19.8-44.2-35.6-73-47.4s-61.8-17.6-98.4-17.6c-33 0-64 5.6-93.2 16.8s-54.4 27-75.8 47.4c-21.4 20.4-38.4 44.8-50.8 73-12.6 28-18.8 59.6-18.8 94.2zM473.4 658.057h166.6l72.4-271.2h2.4l69.4 271.2h166.6l-158.6-438.4h-163.4l-155.4 438.4z" />
<glyph unicode="&#xe928;" glyph-name="publications" d="M894.2 617.6c-0.6 11.8-4.4 21.8-13.2 30.4-79.6 77.6-159 155.2-238.2 233.2-8.4 8.4-18 12.6-29.8 13.2-7 0.4-14.4 1-21.6 1.6-128.4 0-257.4 0-385.8 0-4.6-1.2-9.4-2-14-3.4-34.8-11-55.6-34.2-62-69.6-0.2-0.8-0.8-1.6-1-2.4 0-248.6 0-496.8 0-745.2 0.6-3.2 1.4-6.6 2-9.6 8.4-34.4 36.2-59.4 72.4-64.8 1-0.4 1.6-0.8 2.6-0.8 204.4 0 408.8 0 613 0 5.4 1.2 11 2.2 16 3.8 34.2 11.8 54.6 34.8 60.2 69.8 0 0.8 0.8 1.6 1 2.4 0 173.8 0 347.2 0 520.6-0.6 7-1.4 13.8-1.6 20.8zM767.6 641.4c0 0-106.8 0.4-108.6 0.4 0 0-8.8 0.2-14.6 6.8-5 5.8-4.2 15.4-4.2 15.4 0 2.4 0 103.2 0 103.2l127.4-125.8zM256.4 612.4c0 16.4 13.6 30 30 30h171.8c16.4 0 30-13.6 30-30v-6.8c0-16.4-13.6-30-30-30h-171.8c-16.4 0-30 13.6-30 30v6.8zM768 221.2c0-16.4-13.6-30-30-30h-451.6c-16.4 0-30 13.6-30 30v4c0 16.4 13.6 30 30 30h451.6c16.4 0 30-13.6 30-30v-4zM768 413.4c0-16.4-13.6-30-30-30h-451.6c-16.4 0-30 13.6-30 30v4c0 16.4 13.6 30 30 30h451.6c16.4 0 30-13.6 30-30v-4z" />
<glyph unicode="&#xe929;" glyph-name="url-solid" d="M725.056 608.384h165.504c22.176-49.312 35.424-103.328 37.696-160.384h-189.888c-0.8 60.288-5.792 113.408-13.312 160.384zM652.736 835.328c94.944-36.896 172.864-106.72 221.696-194.88h-154.752c-17.568 89.76-44.256 153.568-66.944 194.88zM514.176 640.448v223.872c34.112-1.504 67.264-6.912 98.944-15.776 24-40.416 55.008-107.904 74.56-208.096h-173.504zM303.648 255.552c-7.488 47.008-12.672 99.808-13.472 160.384h191.936v-160.384h-178.464zM303.328 608.384h178.784v-160.384h-192.128c0.8 60.352 5.856 113.376 13.344 160.384zM383.616 849.248c31.584 8.512 64.48 13.92 98.496 15.008v-223.808h-173.504c19.68 100.736 50.912 168.48 75.008 208.8zM117.152 640.448c49.632 89.6 129.984 159.776 227.072 196.192-22.88-41.28-49.888-105.44-67.648-196.192h-159.424zM257.92 448h-193.92c2.112 56.992 14.944 111.168 37.056 160.384h170.112c-7.456-47.008-12.48-100.096-13.248-160.384zM271.584 255.552h-169.28c-22.208 49.376-36.448 103.168-38.528 160.384h194.272c0.768-60.576 6.016-113.312 13.536-160.384zM276.832 223.488c17.888-91.648 45.312-155.744 68.288-196.544-97.44 36.256-177.824 106.72-227.52 196.544h159.232zM482.112 223.488v-223.808c-33.664 1.056-66.144 6.368-97.44 14.72-24.16 39.552-55.552 107.616-75.392 209.088h172.832zM687.072 223.488c-19.744-100.864-50.944-168.672-75.008-208.384-31.328-8.672-64.192-13.376-97.888-14.88v223.264h172.896zM514.176 415.936h191.936c-0.736-60.576-6.016-113.344-13.504-160.384h-178.432v160.384zM706.304 448h-192.128v160.384h178.752c7.52-47.008 12.576-100.032 13.376-160.384zM738.24 415.936h189.632c-2.112-57.184-16.192-110.976-38.304-160.384h-164.864c7.488 47.072 12.736 99.808 13.536 160.384zM874.176 223.488c-48.672-88.512-126.944-158.368-222.304-195.2 22.88 40.832 49.952 104.512 67.616 195.2h154.688z" />
<glyph unicode="&#xe92a;" glyph-name="download" d="M768 109.714c0 9.886-3.6 18.457-10.857 25.714s-15.829 10.857-25.714 10.857-18.457-3.6-25.714-10.857-10.857-15.829-10.857-25.714 3.6-18.457 10.857-25.714 15.829-10.857 25.714-10.857 18.457 3.6 25.714 10.857 10.857 15.829 10.857 25.714zM914.286 109.714c0 9.886-3.6 18.457-10.857 25.714s-15.829 10.857-25.714 10.857-18.457-3.6-25.714-10.857-10.857-15.829-10.857-25.714 3.6-18.457 10.857-25.714 15.829-10.857 25.714-10.857 18.457 3.6 25.714 10.857 10.857 15.829 10.857 25.714zM987.429 237.714v-182.857c0-15.257-5.314-28.171-16-38.857s-23.6-16-38.857-16h-841.143c-15.257 0-28.171 5.314-38.857 16s-16 23.6-16 38.857v182.857c0 15.257 5.314 28.171 16 38.857s23.6 16 38.857 16h265.714l77.143-77.714c22.114-21.314 48-32 77.714-32s55.6 10.686 77.714 32l77.714 77.714h265.143c15.257 0 28.171-5.314 38.857-16s16-23.6 16-38.857zM801.714 562.857c6.457-15.6 3.829-28.971-8-40l-256-256c-6.857-7.257-15.429-10.857-25.714-10.857s-18.857 3.6-25.714 10.857l-256 256c-11.829 11.029-14.457 24.4-8 40 6.457 14.857 17.714 22.286 33.714 22.286h146.286v256c0 9.886 3.6 18.457 10.857 25.714s15.829 10.857 25.714 10.857h146.286c9.886 0 18.457-3.6 25.714-10.857s10.857-15.829 10.857-25.714v-256h146.286c16 0 27.257-7.429 33.714-22.286z" />
<glyph unicode="&#xe92b;" glyph-name="download-line" d="M690.4 190.257c-11.8 0-22.4-4.4-31-13s-13-19.2-13-31c0-11.8 4.4-22.4 13-31s19.2-13 31-13c11.8 0 22.4 4.4 31 13s13 19.2 13 31c0 11.8-4.4 22.4-13 31s-19.2 13-31 13zM701.2 135.457c-3.2-3.2-6.6-4.6-10.8-4.6s-7.6 1.4-10.8 4.6c-3.2 3.2-4.6 6.6-4.6 10.8s1.4 7.6 4.6 10.8c3.2 3.2 6.6 4.6 10.8 4.6s7.6-1.4 10.8-4.6c3.2-3.2 4.6-6.6 4.6-10.8s-1.4-7.6-4.6-10.8zM809.4 190.257c-11.8 0-22.4-4.4-31-13-8.6-8.4-13-19.2-13-31s4.4-22.4 13-31c8.6-8.6 19.2-13 31-13s22.4 4.4 31 13c8.6 8.6 13 19.2 13 31s-4.4 22.4-13 31c-8.6 8.6-19.4 13-31 13zM820.2 135.457c-3.2-3.2-6.6-4.6-10.8-4.6s-7.6 1.4-10.8 4.6c-3.2 3.2-4.6 6.6-4.6 10.8s1.4 7.6 4.6 10.8c3.2 3.2 6.6 4.6 10.8 4.6s7.6-1.4 10.8-4.6c3.2-3.2 4.6-6.6 4.6-10.8s-1.4-7.6-4.6-10.8zM903.2 299.657c-13.2 13.2-30.2 20.4-49.2 20.4h-226l-70.4-70.4c-13.2-12.8-28.2-18.8-45.8-18.8s-32.4 6.2-45.8 18.8l-69.8 70.4h-226.2c-19 0-36-7-49.2-20.2s-20.4-30.2-20.4-49.2v-148.6c0-19 7-36 20.2-49.2s30.2-20.2 49.2-20.2h684.2c19 0 36 7 49.2 20.4 13.2 13.2 20.2 30.2 20.2 49.2v148.6c0 18.4-7 35.4-20.2 48.8zM873.6 101.857c0-5.8-1.8-10-5.8-14s-8.2-5.8-14-5.8h-683.8c-5.8 0-10 1.8-14 5.8s-5.8 8.2-5.8 14v148.6c0 5.8 1.8 10 5.8 14s8.2 5.8 14 5.8h205.6l55.8-56.2c22.6-21.8 49.8-33 80.4-33 30.8 0 57.8 11.2 80.4 33l56.2 56.2h205.6c5.8 0 10-1.8 14-5.8s5.8-8.2 5.8-14v-148.6zM473.2 306.457c10.2-10.6 23.6-16.4 38.8-16.4 15 0 28.4 5.6 38.8 16.4l207.6 207.6c16.8 16 21.4 37.8 12.2 60l-0.2 0.4c-9.2 21-27.4 33-50.2 33h-94v183.4c0 14.6-5.6 28-16.2 38.6s-23.8 16.2-38.6 16.2h-119c-14.6 0-28-5.6-38.6-16.2-10.4-10.6-15.8-24-15.8-38.6v-183.2h-94c-22.8 0-41-12-50.2-33l-0.2-0.4c-9.2-22-4.8-43.8 12.2-60l207.4-207.8zM299.4 554.857c1.2 3 1.6 3 4.4 3h143.8v233c0 1 0 1.8 1.6 3.4 1.4 1.4 2.2 1.6 3.4 1.6h119c1 0 1.8 0 3.2-1.6 1.4-1.4 1.6-2.2 1.6-3.4v-233h143.8c2.8 0 3.2 0 4.4-3 0.6-1.6 0.8-2.6 0.8-3-0.2-0.2-0.6-0.8-1.4-1.6l-0.4-0.2-208.6-209c-0.6-0.6-1-1-2.8-1s-2.2 0.4-2.8 1l-209.4 209.2c-0.8 0.8-1.2 1.4-1.4 1.6 0 0.4 0.2 1.4 0.8 3z" />
<glyph unicode="&#xe92c;" glyph-name="add" d="M759 501.857c-7 7-15.6 10.6-26 10.4h-147v147c0 10.2-3.6 19-10.4 26-7.4 7.4-16.2 11-26.4 10.8h-73.2c-10.2 0-19.2-3.6-26.4-10.8-7-7-10.6-15.6-10.4-26v-147h-147c-10.2 0-19-3.6-26-10.4-7.4-7.4-11-16.2-10.8-26.4v-73.2c0-10.2 3.6-19.2 10.8-26.4 7-7 15.6-10.6 26-10.4h147v-147c0-10.2 3.6-19 10.4-26 7.4-7.4 16.2-11 26.4-10.8h73.2c10.2 0 19.2 3.6 26.4 10.8 7 7 10.6 15.6 10.4 26v147h147c10.2 0 19 3.6 26 10.4 7.4 7.4 11 16.2 10.8 26.4v73.2c0 10.2-3.6 19.2-10.8 26.4zM824.2 751.057c56.8-56.8 94.8-122.8 115-198.6 20-75.6 20-151.4 0-227.4-20-75.6-58.2-141.8-115-198.4-56.8-56.8-122.8-94.8-198.6-115-75.6-20-151.4-20-227.4 0s-141.8 58.2-198.4 115c-56.8 56.8-94.8 122.8-115 198.6s-20 151.4 0 227.4 58.2 141.8 115 198.4 122.8 94.8 198.6 115 151.4 20 227.4 0c75.8-20 141.8-58.2 198.4-115z" />
<glyph unicode="&#xe941;" glyph-name="help" d="M512 960c-282.77 0-512-229.23-512-512s229.23-512 512-512 512 229.23 512 512-229.23 512-512 512zM320 448c0 106.040 85.96 192 192 192s192-85.96 192-192-85.96-192-192-192-192 85.96-192 192zM925.98 276.524v0l-177.42 73.49c12.518 30.184 19.44 63.276 19.44 97.986s-6.922 67.802-19.44 97.986l177.42 73.49c21.908-52.822 34.020-110.73 34.020-171.476s-12.114-118.654-34.020-171.476v0zM683.478 861.98v0 0l-73.49-177.42c-30.184 12.518-63.276 19.44-97.988 19.44s-67.802-6.922-97.986-19.44l-73.49 177.422c52.822 21.904 110.732 34.018 171.476 34.018 60.746 0 118.654-12.114 171.478-34.020zM98.020 619.476l177.422-73.49c-12.518-30.184-19.442-63.276-19.442-97.986s6.922-67.802 19.44-97.986l-177.42-73.49c-21.906 52.822-34.020 110.73-34.020 171.476s12.114 118.654 34.020 171.476zM340.524 34.020l73.49 177.42c30.184-12.518 63.276-19.44 97.986-19.44s67.802 6.922 97.986 19.44l73.49-177.42c-52.822-21.904-110.73-34.020-171.476-34.020-60.744 0-118.654 12.114-171.476 34.020z" />
<glyph unicode="&#xe951;" glyph-name="notifications" d="M1025.5 160c0 288-256 224-256 448 0 18.56-1.788 34.42-5.048 47.928-16.83 113.018-92.156 203.72-189.772 231.36 0.866 3.948 1.32 8.032 1.32 12.21 0 33.278-28.8 60.502-64 60.502s-64-27.224-64-60.5c0-4.18 0.456-8.264 1.32-12.21-109.47-30.998-190.914-141.298-193.254-273.442-0.040-1.92-0.066-3.864-0.066-5.846 0-224.002-256-160.002-256-448.002 0-76.226 170.59-139.996 398.97-156.080 21.524-40.404 64.056-67.92 113.030-67.92s91.508 27.516 113.030 67.92c228.38 16.084 398.97 79.854 398.97 156.080 0 0.228-0.026 0.456-0.028 0.682l1.528-0.682zM826.246 105.904c-54.23-14.47-118.158-24.876-186.768-30.648-5.704 65.418-60.582 116.744-127.478 116.744s-121.774-51.326-127.478-116.744c-68.608 5.772-132.538 16.178-186.768 30.648-74.63 19.914-110.31 42.19-123.368 54.096 13.058 11.906 48.738 34.182 123.368 54.096 86.772 23.152 198.372 35.904 314.246 35.904s227.474-12.752 314.246-35.904c74.63-19.914 110.31-42.19 123.368-54.096-13.058-11.906-48.738-34.182-123.368-54.096z" />
<glyph unicode="&#xe953;" glyph-name="course-schedule" d="M320 576h128v-128h-128zM512 576h128v-128h-128zM704 576h128v-128h-128zM128 192h128v-128h-128zM320 192h128v-128h-128zM512 192h128v-128h-128zM320 384h128v-128h-128zM512 384h128v-128h-128zM704 384h128v-128h-128zM128 384h128v-128h-128zM832 960v-64h-128v64h-448v-64h-128v64h-128v-1024h960v1024h-128zM896 0h-832v704h832v-704z" />
<glyph unicode="&#xe971;" glyph-name="faculty" d="M576 253.388v52.78c70.498 39.728 128 138.772 128 237.832 0 159.058 0 288-192 288s-192-128.942-192-288c0-99.060 57.502-198.104 128-237.832v-52.78c-217.102-17.748-384-124.42-384-253.388h896c0 128.968-166.898 235.64-384 253.388z" />
<glyph unicode="&#xe9a4;" glyph-name="fall" d="M1011.328 825.504c-110.752 83.928-281.184 134.034-455.91 134.034-216.12 0-392.226-75.456-483.16-207.020-42.708-61.79-66.33-134.958-70.208-217.474-3.454-73.474 8.884-154.726 36.684-242.146 94.874 284.384 359.82 507.102 665.266 507.102 0 0-285.826-75.232-465.524-308.192-0.112-0.138-2.494-3.090-6.614-8.698-36.080-48.278-67.538-103.162-91.078-165.328-39.87-94.83-76.784-224.948-76.784-381.782h128c0 0-19.43 122.222 14.36 262.79 55.89-7.556 105.858-11.306 150.852-11.306 117.678 0 201.37 25.46 263.388 80.124 55.568 48.978 86.198 114.786 118.624 184.456 49.524 106.408 105.654 227.010 268.654 320.152 9.33 5.332 15.362 14.992 16.056 25.716s-4.040 21.080-12.606 27.572z" />
<glyph unicode="&#xe9ac;" glyph-name="delete" d="M128 640v-640c0-35.2 28.8-64 64-64h576c35.2 0 64 28.8 64 64v640h-704zM320 64h-64v448h64v-448zM448 64h-64v448h64v-448zM576 64h-64v448h64v-448zM704 64h-64v448h64v-448zM848 832h-208v80c0 26.4-21.6 48-48 48h-224c-26.4 0-48-21.6-48-48v-80h-208c-26.4 0-48-21.6-48-48v-80h832v80c0 26.4-21.6 48-48 48zM576 832h-192v63.198h192v-63.198z" />
<glyph unicode="&#xe9bd;" glyph-name="menu" d="M64 768h896v-192h-896zM64 512h896v-192h-896zM64 256h896v-192h-896z" />
<glyph unicode="&#xe9ce;" glyph-name="review-request" d="M512 768c-223.318 0-416.882-130.042-512-320 95.118-189.958 288.682-320 512-320 223.312 0 416.876 130.042 512 320-95.116 189.958-288.688 320-512 320zM764.45 598.296c60.162-38.374 111.142-89.774 149.434-150.296-38.292-60.522-89.274-111.922-149.436-150.296-75.594-48.218-162.89-73.704-252.448-73.704-89.56 0-176.858 25.486-252.452 73.704-60.158 38.372-111.138 89.772-149.432 150.296 38.292 60.524 89.274 111.924 149.434 150.296 3.918 2.5 7.876 4.922 11.86 7.3-9.96-27.328-15.41-56.822-15.41-87.596 0-141.382 114.616-256 256-256 141.382 0 256 114.618 256 256 0 30.774-5.452 60.268-15.408 87.598 3.978-2.378 7.938-4.802 11.858-7.302v0zM512 544c0-53.020-42.98-96-96-96s-96 42.98-96 96 42.98 96 96 96 96-42.982 96-96z" />
<glyph unicode="&#xe9d4;" glyph-name="summer" d="M512 128c35.346 0 64-28.654 64-64v-64c0-35.346-28.654-64-64-64s-64 28.654-64 64v64c0 35.346 28.654 64 64 64zM512 768c-35.346 0-64 28.654-64 64v64c0 35.346 28.654 64 64 64s64-28.654 64-64v-64c0-35.346-28.654-64-64-64zM960 512c35.346 0 64-28.654 64-64s-28.654-64-64-64h-64c-35.348 0-64 28.654-64 64s28.652 64 64 64h64zM192 448c0-35.346-28.654-64-64-64h-64c-35.346 0-64 28.654-64 64s28.654 64 64 64h64c35.346 0 64-28.654 64-64zM828.784 221.726l45.256-45.258c24.992-24.99 24.992-65.516 0-90.508-24.994-24.992-65.518-24.992-90.51 0l-45.256 45.256c-24.992 24.99-24.992 65.516 0 90.51 24.994 24.992 65.518 24.992 90.51 0zM195.216 674.274l-45.256 45.256c-24.994 24.994-24.994 65.516 0 90.51s65.516 24.994 90.51 0l45.256-45.256c24.994-24.994 24.994-65.516 0-90.51s-65.516-24.994-90.51 0zM828.784 674.274c-24.992-24.992-65.516-24.992-90.51 0-24.992 24.994-24.992 65.516 0 90.51l45.256 45.254c24.992 24.994 65.516 24.994 90.51 0 24.992-24.994 24.992-65.516 0-90.51l-45.256-45.254zM195.216 221.726c24.992 24.992 65.518 24.992 90.508 0 24.994-24.994 24.994-65.52 0-90.51l-45.254-45.256c-24.994-24.992-65.516-24.992-90.51 0s-24.994 65.518 0 90.508l45.256 45.258zM512 704c-141.384 0-256-114.616-256-256 0-141.382 114.616-256 256-256 141.382 0 256 114.618 256 256 0 141.384-114.616 256-256 256zM512 288c-88.366 0-160 71.634-160 160s71.634 160 160 160 160-71.634 160-160-71.634-160-160-160z" />
<glyph unicode="&#xea13;" glyph-name="sign-in" d="M384 448h-320v128h320v128l192-192-192-192zM1024 960v-832l-384-192v192h-384v256h64v-192h320v576l256 128h-576v-256h-64v320z" />
<glyph unicode="&#xea14;" glyph-name="sign-out" d="M768 320v128h-320v128h320v128l192-192zM704 384v-256h-320v-192l-384 192v832h704v-320h-64v256h-512l256-128v-576h256v192z" />
<glyph unicode="&#xea5b;" glyph-name="filter" d="M512 960c-282.77 0-512-71.634-512-160v-96l384-384v-320c0-35.346 57.306-64 128-64 70.692 0 128 28.654 128 64v320l384 384v96c0 88.366-229.23 160-512 160zM94.384 821.176c23.944 13.658 57.582 26.62 97.278 37.488 87.944 24.076 201.708 37.336 320.338 37.336 118.628 0 232.394-13.26 320.338-37.336 39.696-10.868 73.334-23.83 97.28-37.488 15.792-9.006 24.324-16.624 28.296-21.176-3.972-4.552-12.506-12.168-28.296-21.176-23.946-13.658-57.584-26.62-97.28-37.488-87.942-24.076-201.708-37.336-320.338-37.336s-232.394 13.26-320.338 37.336c-39.696 10.868-73.334 23.83-97.278 37.488-15.792 9.008-24.324 16.624-28.298 21.176 3.974 4.552 12.506 12.168 28.298 21.176z" />
<glyph unicode="&#xf002;" glyph-name="search" horiz-adv-x="951" d="M658.286 484.571q0 105.714-75.143 180.857t-180.857 75.143-180.857-75.143-75.143-180.857 75.143-180.857 180.857-75.143 180.857 75.143 75.143 180.857zM950.857 9.143q0-29.714-21.714-51.429t-51.429-21.714q-30.857 0-51.429 21.714l-196 195.429q-102.286-70.857-228-70.857-81.714 0-156.286 31.714t-128.571 85.714-85.714 128.571-31.714 156.286 31.714 156.286 85.714 128.571 128.571 85.714 156.286 31.714 156.286-31.714 128.571-85.714 85.714-128.571 31.714-156.286q0-125.714-70.857-228l196-196q21.143-21.143 21.143-51.429z" />
<glyph unicode="&#xf00c;" glyph-name="verify" d="M954.857 636.571q0-22.857-16-38.857l-491.429-491.429q-16-16-38.857-16t-38.857 16l-284.571 284.571q-16 16-16 38.857t16 38.857l77.714 77.714q16 16 38.857 16t38.857-16l168-168.571 374.857 375.429q16 16 38.857 16t38.857-16l77.714-77.714q16-16 16-38.857z" />
<glyph unicode="&#xf00d;" glyph-name="close" horiz-adv-x="805" d="M741.714 204.571q0-22.857-16-38.857l-77.714-77.714q-16-16-38.857-16t-38.857 16l-168 168-168-168q-16-16-38.857-16t-38.857 16l-77.714 77.714q-16 16-16 38.857t16 38.857l168 168-168 168q-16 16-16 38.857t16 38.857l77.714 77.714q16 16 38.857 16t38.857-16l168-168 168 168q16 16 38.857 16t38.857-16l77.714-77.714q16-16 16-38.857t-16-38.857l-168-168 168-168q16-16 16-38.857z" />
<glyph unicode="&#xf013;" glyph-name="administration" horiz-adv-x="878" d="M585.143 448q0 60.571-42.857 103.429t-103.429 42.857-103.429-42.857-42.857-103.429 42.857-103.429 103.429-42.857 103.429 42.857 42.857 103.429zM877.714 510.286v-126.857q0-6.857-4.571-13.143t-11.429-7.429l-105.714-16q-10.857-30.857-22.286-52 20-28.571 61.143-78.857 5.714-6.857 5.714-14.286t-5.143-13.143q-15.429-21.143-56.571-61.714t-53.714-40.571q-6.857 0-14.857 5.143l-78.857 61.714q-25.143-13.143-52-21.714-9.143-77.714-16.571-106.286-4-16-20.571-16h-126.857q-8 0-14 4.857t-6.571 12.286l-16 105.143q-28 9.143-51.429 21.143l-80.571-61.143q-5.714-5.143-14.286-5.143-8 0-14.286 6.286-72 65.143-94.286 96-4 5.714-4 13.143 0 6.857 4.571 13.143 8.571 12 29.143 38t30.857 40.286q-15.429 28.571-23.429 56.571l-104.571 15.429q-7.429 1.143-12 7.143t-4.571 13.429v126.857q0 6.857 4.571 13.143t10.857 7.429l106.286 16q8 26.286 22.286 52.571-22.857 32.571-61.143 78.857-5.714 6.857-5.714 13.714 0 5.714 5.143 13.143 14.857 20.571 56.286 61.429t54 40.857q7.429 0 14.857-5.714l78.857-61.143q25.143 13.143 52 21.714 9.143 77.714 16.571 106.286 4 16 20.571 16h126.857q8 0 14-4.857t6.571-12.286l16-105.143q28-9.143 51.429-21.143l81.143 61.143q5.143 5.143 13.714 5.143 7.429 0 14.286-5.714 73.714-68 94.286-97.143 4-4.571 4-12.571 0-6.857-4.571-13.143-8.571-12-29.143-38t-30.857-40.286q14.857-28.571 23.429-56l104.571-16q7.429-1.143 12-7.143t4.571-13.429z" />
<glyph unicode="&#xf015;" glyph-name="home" horiz-adv-x="951" d="M804.571 393.143v-274.286q0-14.857-10.857-25.714t-25.714-10.857h-219.429v219.429h-146.286v-219.429h-219.429q-14.857 0-25.714 10.857t-10.857 25.714v274.286q0 0.571 0.286 1.714t0.286 1.714l328.571 270.857 328.571-270.857q0.571-1.143 0.571-3.429zM932 432.571l-35.429-42.286q-4.571-5.143-12-6.286h-1.714q-7.429 0-12 4l-395.429 329.714-395.429-329.714q-6.857-4.571-13.714-4-7.429 1.143-12 6.286l-35.429 42.286q-4.571 5.714-4 13.429t6.286 12.286l410.857 342.286q18.286 14.857 43.429 14.857t43.429-14.857l139.429-116.571v111.429q0 8 5.143 13.143t13.143 5.143h109.714q8 0 13.143-5.143t5.143-13.143v-233.143l125.143-104q5.714-4.571 6.286-12.286t-4-13.429z" />
<glyph unicode="&#xf022;" glyph-name="courses" d="M219.429 283.429v-36.571q0-7.429-5.429-12.857t-12.857-5.429h-36.571q-7.429 0-12.857 5.429t-5.429 12.857v36.571q0 7.429 5.429 12.857t12.857 5.429h36.571q7.429 0 12.857-5.429t5.429-12.857zM219.429 429.714v-36.571q0-7.429-5.429-12.857t-12.857-5.429h-36.571q-7.429 0-12.857 5.429t-5.429 12.857v36.571q0 7.429 5.429 12.857t12.857 5.429h36.571q7.429 0 12.857-5.429t5.429-12.857zM219.429 576v-36.571q0-7.429-5.429-12.857t-12.857-5.429h-36.571q-7.429 0-12.857 5.429t-5.429 12.857v36.571q0 7.429 5.429 12.857t12.857 5.429h36.571q7.429 0 12.857-5.429t5.429-12.857zM877.714 283.429v-36.571q0-7.429-5.429-12.857t-12.857-5.429h-548.571q-7.429 0-12.857 5.429t-5.429 12.857v36.571q0 7.429 5.429 12.857t12.857 5.429h548.571q7.429 0 12.857-5.429t5.429-12.857zM877.714 429.714v-36.571q0-7.429-5.429-12.857t-12.857-5.429h-548.571q-7.429 0-12.857 5.429t-5.429 12.857v36.571q0 7.429 5.429 12.857t12.857 5.429h548.571q7.429 0 12.857-5.429t5.429-12.857zM877.714 576v-36.571q0-7.429-5.429-12.857t-12.857-5.429h-548.571q-7.429 0-12.857 5.429t-5.429 12.857v36.571q0 7.429 5.429 12.857t12.857 5.429h548.571q7.429 0 12.857-5.429t5.429-12.857zM950.857 173.714v475.429q0 7.429-5.429 12.857t-12.857 5.429h-841.143q-7.429 0-12.857-5.429t-5.429-12.857v-475.429q0-7.429 5.429-12.857t12.857-5.429h841.143q7.429 0 12.857 5.429t5.429 12.857zM1024 795.429v-621.714q0-37.714-26.857-64.571t-64.571-26.857h-841.143q-37.714 0-64.571 26.857t-26.857 64.571v621.714q0 37.714 26.857 64.571t64.571 26.857h841.143q37.714 0 64.571-26.857t26.857-64.571z" />
<glyph unicode="&#xf02d;" glyph-name="books" horiz-adv-x="953" d="M936.571 686.857q22.857-32.571 10.286-73.714l-157.143-517.714q-10.857-36.571-43.714-61.429t-70-24.857h-527.429q-44 0-84.857 30.571t-56.857 75.143q-13.714 38.286-1.143 72.571 0 2.286 1.714 15.429t2.286 21.143q0.571 4.571-1.714 12.286t-1.714 11.143q1.143 6.286 4.571 12t9.429 13.429 9.429 13.429q13.143 21.714 25.714 52.286t17.143 52.286q1.714 5.714 0.286 17.143t-0.286 16q1.714 6.286 9.714 16t9.714 13.143q12 20.571 24 52.571t14.286 51.429q0.571 5.143-1.429 18.286t0.286 16q2.286 7.429 12.571 17.429t12.571 12.857q10.857 14.857 24.286 48.286t15.714 55.143q0.571 4.571-1.714 14.571t-1.143 15.143q1.143 4.571 5.143 10.286t10.286 13.143 9.714 12q4.571 6.857 9.429 17.429t8.571 20 9.143 20.571 11.143 18.286 15.143 13.429 20.571 6.571 27.143-3.143l-0.571-1.714q21.714 5.143 29.143 5.143h434.857q42.286 0 65.143-32t10.286-74.286l-156.571-517.714q-20.571-68-40.857-87.714t-73.429-19.714h-496.571q-15.429 0-21.714-8.571-6.286-9.143-0.571-24.571 13.714-40 82.286-40h527.429q16.571 0 32 8.857t20 23.714l171.429 564q4 12.571 2.857 32.571 21.714-8.571 33.714-24.571zM328.571 685.714q-2.286-7.429 1.143-12.857t11.429-5.429h347.429q7.429 0 14.571 5.429t9.429 12.857l12 36.571q2.286 7.429-1.143 12.857t-11.429 5.429h-347.429q-7.429 0-14.571-5.429t-9.429-12.857zM281.143 539.429q-2.286-7.429 1.143-12.857t11.429-5.429h347.429q7.429 0 14.571 5.429t9.429 12.857l12 36.571q2.286 7.429-1.143 12.857t-11.429 5.429h-347.429q-7.429 0-14.571-5.429t-9.429-12.857z" />
<glyph unicode="&#xf053;" glyph-name="previous" horiz-adv-x="768" d="M669.143 788l-303.429-303.429 303.429-303.429q10.857-10.857 10.857-25.714t-10.857-25.714l-94.857-94.857q-10.857-10.857-25.714-10.857t-25.714 10.857l-424 424q-10.857 10.857-10.857 25.714t10.857 25.714l424 424q10.857 10.857 25.714 10.857t25.714-10.857l94.857-94.857q10.857-10.857 10.857-25.714t-10.857-25.714z" />
<glyph unicode="&#xf054;" glyph-name="next" horiz-adv-x="695" d="M632.571 458.857l-424-424q-10.857-10.857-25.714-10.857t-25.714 10.857l-94.857 94.857q-10.857 10.857-10.857 25.714t10.857 25.714l303.429 303.429-303.429 303.429q-10.857 10.857-10.857 25.714t10.857 25.714l94.857 94.857q10.857 10.857 25.714 10.857t25.714-10.857l424-424q10.857-10.857 10.857-25.714t-10.857-25.714z" />
<glyph unicode="&#xf085;" glyph-name="parameters" horiz-adv-x="1097" d="M602 293.4c-11 13.6-21.2 27.6-32.4 41-5.2 6-6.6 11.2-2.2 18.2 3.2 5.4 5.8 11.6 7.8 18 1.8 6.8 5.8 9.2 12.4 10 19.4 2.8 38.6 5.6 58 8.8 12.6 2.2 15.6 5.8 15.6 18.8 0 25.4 0 51 0 76.4 0 14.8-3.6 18.8-18 20.8-18.4 2.8-37 5.4-55.4 8-6 0.8-10 2.8-12 9.4-2.4 8-5.8 15.8-9.6 23.2-3 5.4-2.2 9.6 1.6 14.2 10.2 12.8 20.4 26 30.2 39 11.2 14.8 11.2 17 0.2 31.6-1.6 1.8-3 4-5 5.6-17 17-34.4 34.4-51.6 51.2-7.8 7.4-14.8 7.4-23.2 1-12.8-9.6-26.4-18.8-38.6-29.4-9.4-8.2-18-11.4-29.2-4-4.2 3-10 3.2-14.8 6-2.8 1.6-5.8 4.6-6.6 7.8-3.6 20.6-6.6 41.2-9.6 61.8-1.6 11.2-5.8 15.4-17 15.4-27.4 0.2-54.8 0-82.2 0-9.4 0-15.2-4.2-16.6-13.8-2.6-15.6-6.6-31.4-7.4-46.8-0.8-15.8-5.4-27.2-22.6-29.6-3.6-0.8-7-2.6-10-4.4-4.4-2.8-7.8-1.8-11.4 1.4-14.4 11.6-29.2 23.2-44.2 34.6-10.6 8.2-17.6 8.8-27.4-0.8-20.4-19.4-39.8-39.2-59.2-59.4-8.4-8.8-7.8-14.8 0.4-24.6 9.2-11.2 17.2-23.6 27.6-34.2 10.2-10.8 12.4-20.8 3.8-33.4-1.8-2.8-3.2-6.4-3.8-9.6-1.2-8.2-6.6-9.8-13.6-10.8-19.4-2.8-38.6-5.6-58-8.8-10.8-1.8-14.4-6-14.4-17-0.2-27.2-0.2-54 0-81.2 0-10.8 3-14.4 13.8-16.4 15.8-2.8 31.8-6 48-7.2 14.8-1.2 24.4-6.4 27.4-21.6 1-4.6 3.6-9.4 6-13.6 3-5 2.6-8.8-1.2-13.4-11.4-14.2-22.2-29-33.8-43.2-6.6-7.8-6.6-14.8-1-22.6 1.8-2.6 3.2-5.4 5.4-7.8 18.4-18.8 37.4-37.4 56.4-56.2 2.8-2.6 7-3.8 11-5.4 4 1.8 7.8 3.2 11 5.6 12.8 9.4 26 18.4 37.8 28.8 10 8.6 19 12.4 30.8 4.2 4-2.8 9.6-3 13.6-5.4 3-1.8 6-5.4 6.6-8.4 3.6-20.2 6.6-40.6 9.4-60.8 1.8-11.2 5.8-15.4 17-15.6 27.4-0.2 54.8-0.2 82.2 0 11 0 14.8 3.6 16.8 14.8 3.6 20.6 6.6 41.2 9.2 61.8 0.8 5.2 2.4 7.8 7.2 9.2 8 2.6 15.8 5.4 23.4 9.2 5.2 2.6 8.4 1.6 12.4-1.8 14-11.2 28.2-22.2 42.6-33.4 12-9.4 18.4-9.8 29.4 0.8 19.6 18.8 38.6 38.2 57 57.6 9.4 11 8.8 15.8 0 26.4zM362.2 328.6c-66.8 0-119.6 53.4-119.4 120.6 0.2 65.6 54 118.8 120.2 118 66.8-0.8 119-53.4 119-120.2 0-65.6-53.4-118.6-119.8-118.4zM960 712.8c0.2 7.8-2.8 11-9.6 12.2-12.4 2.2-24.4 5.8-36.8 6.4-15.8 0.8-27.8 4.6-33.6 20.8-1.8 5.2-3 8.4-0.8 13.6 6.8 16.6 12.8 33.6 19.6 50.2 2.4 5.8 0.8 9.8-5.2 12.8-16.2 8.8-32 17.6-48 26.8-5.4 3.2-8.8 2.2-12.4-2.4-8.6-10.2-18.4-19.6-25.4-30.6-8.2-12.8-17.6-19-33.2-16.8-5.6 0.8-9.4 1.8-13 6.6-11.2 14.2-23.4 28-35 42-3.2 4-6.6 4.2-11.2 1.6-16.2-9.8-33-18.8-49-28.8-2.4-1.6-4.4-7-3.6-9.8 4-12.6 7.4-26 13.6-37.4 7.8-14.8 9.2-27.6-2.4-40.2-2.6-2.8-6.4-5.6-9.8-6.4-18-3.2-36.2-6-54-9.2-6.4-1-8.4-4.4-8.4-11.2 0.4-16.8 1-33.6-0.2-50.2-0.8-10 3.8-13.6 12.2-14.8 17-2.8 34.4-5.2 51.4-8 3-0.8 6.4-3 8.4-5.4 11.4-12.8 11.4-26.4 2.6-41-4.4-7.2-6.8-15.8-10-24-1.8-5.4-3-10.8-5.4-18 1.8-1.8 4.2-4.6 6.8-6.6 15.8-9.4 31.8-18.2 47.6-27.6 4.4-2.8 7.8-2.8 11.2 1.2 9.2 10.6 19.6 20.4 26.8 31.8 8.2 12.6 17.2 19.4 33.2 17 6-0.8 9.8-2.2 13.6-7 11.2-14.4 23.2-28.2 35.4-42 1.8-1.8 7.8-2.6 10-1.4 16.4 8.8 32.4 18.4 48.6 27.6 5.4 3 6.8 6.6 5 12.2-4.4 12.4-7.8 25-13.6 36.4-7.2 14-9.6 26.4 1.6 39.8 3 3.8 5.4 6.6 10.8 7 17.6 2.4 35 5.4 52.6 8.2 7.2 1.2 10.2 4.6 10 12.6-0.8 18-0.8 35-0.4 52zM781 627.4c-32.8-0.2-59.8 26.4-59.8 58.6 0 33.6 27.2 61 59.8 60.8 32.8-0.2 59.6-27.4 59.6-60.4 0-32.4-26.8-58.8-59.6-59zM960 236.4c0.2 5.6-1.8 8.8-7.4 10-13 2.6-26.2 6.4-39.6 7-15.4 1-26.8 4.4-33 20.6-1.8 5.4-3 9.2-0.8 14.4 6.8 16.6 12.8 33.6 19.4 50.2 2.2 5.6 0.4 9.2-5 12.2-16.4 8.8-32.4 18.2-48.6 27.6-4.6 2.8-7.8 2.4-11.2-1.8-8.8-10.8-19.4-20.6-26.8-32-8-12-16.4-18.4-31.6-16.4-6.8 0.8-11 2.2-15.2 7.8-11 13.8-22.6 27.2-33.8 40.6-3.6 4.2-7.4 4.2-12.2 1.4-15.8-9.4-31.6-18.4-47.6-27.4-5.2-2.8-6.6-6.4-4.4-11.2 4.4-12.4 8-25.4 14-37.4 7-13.8 9.2-25.8-1.6-38.6-3.2-4.2-5.6-6.8-11.2-7.8-17-2.2-34.4-5.4-51.4-8-7.8-1.2-11-5-10.6-13.4 0.8-16.4 0.8-33 0-49.4-0.4-8.8 3-12.6 11-14 17.6-2.8 35-5.4 52.6-8.2 2.8-0.4 6.4-1.6 7.8-3.8 13.4-19 13-19 4.2-41-5.6-13.6-10.8-27.8-16.6-43.2 2.8-2.8 4.6-5.6 7.4-7.4 15.8-9.4 31.8-18.2 47.6-27.6 5.2-3 8.6-2.6 12.2 1.6 9.2 10.6 19.2 20.6 26.8 32 8 11.4 15.8 19 31.4 16.6 6.6-1 11-1.8 15.2-7.4 11-14.2 22.6-27.8 34.6-41.4 1.8-1.8 7.8-3 10-1.6 16.8 8.8 33 18.8 49.6 27.8 5.2 2.8 6.4 6.6 4.2 11.4-4.4 12.4-7.8 25.8-14 37.4-7.2 13.8-8.8 25.8 1.8 38.8 3.2 4.2 5.8 6.6 11.2 7.4 17.8 2.4 35.6 5.6 53.4 8.6 6 1 8.6 4.2 8.4 11-0.6 18.6-0.6 36.6-0.2 54.6zM780.4 149.4c-32.8 0-59.8 26.6-59.8 58.6 0 33.4 27.4 61 60 60.6 33-0.4 59.4-27.4 59.4-60.6 0.4-32-26.4-58.6-59.6-58.6z" />
<glyph unicode="&#xf0a1;" glyph-name="announcements" d="M187.238 363.42c-27.763 0-52.943 0-78.769 0-52.943 0.646-94.265 33.574-106.532 85.226-1.291 5.811-1.937 11.622-1.937 17.433 0 42.613 0 85.226 0 127.839 0 64.565 45.841 110.406 110.406 110.406 92.974 0 186.593 1.937 279.566-0.646 174.971-4.52 332.509 49.715 477.135 142.689 51.652 33.574 100.076 71.667 149.791 108.469 12.267 9.039 24.535 3.228 34.865-0.646 36.156-12.913 56.817-52.943 56.817-82.643-1.291-78.769-0.646-158.184-0.646-236.953 0-5.165 0-9.685 0-16.141 29.054-1.937 52.943-12.913 69.73-37.448 11.622-17.433 16.141-35.511 15.496-56.172-1.937-38.093-32.928-67.793-85.226-78.124 0-4.52 0-9.039 0-14.204 0-80.061 0-160.767 0-240.827 0-43.904-36.156-82.643-79.415-83.934-4.52 0-10.33 3.874-14.85 7.102-89.1 72.313-184.010 136.232-289.251 182.073-75.541 32.928-154.31 54.88-236.308 62.628-3.874 0.646-7.748-0.646-11.622-1.937-51.006-17.433-82.643-67.148-73.604-120.091 2.583-14.204 10.976-27.763 18.724-40.676 3.228-6.456 5.165-10.33 1.937-17.433-18.724-37.448-15.496-73.604 12.267-105.241 22.598-25.826 48.424-49.069 74.25-74.25-7.748-14.85-20.661-29.054-38.093-37.448-70.376-34.219-141.397-34.865-212.419-1.291-14.85 7.102-23.889 17.433-28.409 34.219-16.141 54.88-34.865 108.469-49.715 163.349-17.433 64.565-12.267 129.776 3.228 194.34 0.646 2.583 1.291 5.811 2.583 10.33z" />
<glyph unicode="&#xf0c0;" glyph-name="population" horiz-adv-x="1097" d="M338.857 448q-92.571-2.857-151.429-73.143h-76.571q-46.857 0-78.857 23.143t-32 67.714q0 201.714 70.857 201.714 3.429 0 24.857-12t55.714-24.286 68-12.286q38.286 0 76 13.143-2.857-21.143-2.857-37.714 0-79.429 46.286-146.286zM950.857 84q0-68.571-41.714-108.286t-110.857-39.714h-499.429q-69.143 0-110.857 39.714t-41.714 108.286q0 30.286 2 59.143t8 62.286 15.143 62 24.571 55.714 35.429 46.286 48.857 30.571 63.714 11.429q5.714 0 24.571-12.286t41.714-27.429 61.143-27.429 77.143-12.286 77.143 12.286 61.143 27.429 41.714 27.429 24.571 12.286q34.857 0 63.714-11.429t48.857-30.571 35.429-46.286 24.571-55.714 15.143-62 8-62.286 2-59.143zM365.714 813.714q0-60.571-42.857-103.429t-103.429-42.857-103.429 42.857-42.857 103.429 42.857 103.429 103.429 42.857 103.429-42.857 42.857-103.429zM768 594.286q0-90.857-64.286-155.143t-155.143-64.286-155.143 64.286-64.286 155.143 64.286 155.143 155.143 64.286 155.143-64.286 64.286-155.143zM1097.143 465.714q0-44.571-32-67.714t-78.857-23.143h-76.571q-58.857 70.286-151.429 73.143 46.286 66.857 46.286 146.286 0 16.571-2.857 37.714 37.714-13.143 76-13.143 33.714 0 68 12.286t55.714 24.286 24.857 12q70.857 0 70.857-201.714zM1024 813.714q0-60.571-42.857-103.429t-103.429-42.857-103.429 42.857-42.857 103.429 42.857 103.429 103.429 42.857 103.429-42.857 42.857-103.429z" />
<glyph unicode="&#xf128;" glyph-name="faq" horiz-adv-x="637" d="M402.286 233.143v-137.143q0-9.143-6.857-16t-16-6.857h-137.143q-9.143 0-16 6.857t-6.857 16v137.143q0 9.143 6.857 16t16 6.857h137.143q9.143 0 16-6.857t6.857-16zM582.857 576q0-30.857-8.857-57.714t-20-43.714-31.429-34-32.857-24.857-34.857-20.286q-23.429-13.143-39.143-37.143t-15.714-38.286q0-9.714-6.857-18.571t-16-8.857h-137.143q-8.571 0-14.571 10.571t-6 21.429v25.714q0 47.429 37.143 89.429t81.714 62q33.714 15.429 48 32t14.286 43.429q0 24-26.571 42.286t-61.429 18.286q-37.143 0-61.714-16.571-20-14.286-61.143-65.714-7.429-9.143-17.714-9.143-6.857 0-14.286 4.571l-93.714 71.429q-7.429 5.714-8.857 14.286t3.143 16q91.429 152 265.143 152 45.714 0 92-17.714t83.429-47.429 60.571-72.857 23.429-90.571z" />
<glyph unicode="&#xf187;" glyph-name="archive-01" d="M621.714 484.571q0 14.857-10.857 25.714t-25.714 10.857h-146.286q-14.857 0-25.714-10.857t-10.857-25.714 10.857-25.714 25.714-10.857h146.286q14.857 0 25.714 10.857t10.857 25.714zM950.857 594.286v-548.571q0-14.857-10.857-25.714t-25.714-10.857h-804.571q-14.857 0-25.714 10.857t-10.857 25.714v548.571q0 14.857 10.857 25.714t25.714 10.857h804.571q14.857 0 25.714-10.857t10.857-25.714zM987.429 850.286v-146.286q0-14.857-10.857-25.714t-25.714-10.857h-877.714q-14.857 0-25.714 10.857t-10.857 25.714v146.286q0 14.857 10.857 25.714t25.714 10.857h877.714q14.857 0 25.714-10.857t10.857-25.714z" />
<glyph unicode="&#xf19c;" glyph-name="college" horiz-adv-x="1065" d="M116.567 128.4c0 12.6-0.6 24.6 0.2 36.4 0.6 12 14.6 25.2 27.2 25.8 11.6 0.6 23.2 0.2 35.8 0.2 0 129 0 256.6 0 385 43 0 85 0 128 0 0-127.4 0-255 0-383.4 22 0 43 0 64.8 0 0 127.8 0 255.4 0 383.6 43 0 85.2 0 128 0 0-127.8 0-255.4 0-383.6 3.2-0.4 5.6-0.8 8.2-0.8 16 0 32.2 0.6 48.2 0 7.4-0.2 8.6 2.6 8.6 9.2-0.2 62.8-0.2 125.6-0.2 188.6 0 59.6 0 119.2 0 178.8 0 2.6 0.2 5.2 0.4 8.2 42.2 0 83.8 0 126.8 0 0-127.8 0-255.6 0-383.8 22 0 43 0 65 0 0 128 0 255.8 0 384 42.8 0 84.6 0 127.2 0 0-127.8 0-255.4 0-384.6 9.2 0 17.4-0.2 25.8 0 14.2 0.4 26.6-3.6 34.4-16.4 2.4-3.8 4.4-8.6 4.6-13 0.6-11 0.2-22.2 0.2-33.8-277.6-0.4-554.8-0.4-833.2-0.4zM1013.567 641.4c-21.6 0-42.2 0-62.6 0-6.2-24-17.2-32.4-42.4-32.4-108.6 0-217.4 0-326 0-139.4 0-278.6-0.2-418-0.2-5.2 0-10.6 0.2-15.8 0.6-18 1.4-27.6 9.8-32.8 27.4-0.6 2-4.4 4.2-6.6 4.2-19 0.4-37.8 0.2-57.8 0.2 0 20.6-0.2 40.4 0.4 60 0 2.2 4 5.2 6.6 6.4 48.6 19.6 97.2 39 145.8 58.4 107.2 43 214.6 85.8 321.8 128.6 3.8 1.4 9 1.4 12.8-0.2 155.2-61.8 310.4-124 465.6-185.8 6.8-2.8 9.2-6 9-13.2-0.4-17.6 0-35.4 0-54zM1013.367 0c-320.8 0-640.6 0-961.2 0 0 22.8-0.2 45.4 0.2 68.2 0 3.8 2.6 7.6 4.6 11.2 8.4 14.2 22.2 16.6 37 16.6 106.4 0 212.8 0 319 0 185.8 0 371.6 0 557.4-0.2 8.4 0 17.6-1.2 25.2-4.6 11.6-5.2 18-15 17.6-28.6-0.2-21 0.2-41.6 0.2-62.6z" />
<glyph unicode="&#xf19d;" glyph-name="class" horiz-adv-x="1317" d="M1013.714 482.286l10.286-180.571q2.286-39.429-46.857-73.143t-134.286-53.429-184.571-19.714-184.571 19.714-134.286 53.429-46.857 73.143l10.286 180.571 328-103.429q12.571-4 27.429-4t27.429 4zM1316.571 667.429q0-13.143-12.571-17.714l-640-201.143q-2.286-0.571-5.714-0.571t-5.714 0.571l-372.571 117.714q-24.571-19.429-40.571-63.714t-19.429-102q36-20.571 36-62.286 0-39.429-33.143-61.143l33.143-247.429q1.143-8-4.571-14.286-5.143-6.286-13.714-6.286h-109.714q-8.571 0-13.714 6.286-5.714 6.286-4.571 14.286l33.143 247.429q-33.143 21.714-33.143 61.143 0 41.714 37.143 63.429 6.286 118.286 56 188.571l-190.286 59.429q-12.571 4.571-12.571 17.714t12.571 17.714l640 201.143q2.286 0.571 5.714 0.571t5.714-0.571l640-201.143q12.571-4.571 12.571-17.714z" />
<glyph unicode="&#xf1d8;" glyph-name="send" horiz-adv-x="1026" d="M127 401c3.6 9.8 11.2 15.2 19.8 20.2 151.8 87.4 303.6 175.2 455.4 262.8 83.6 48.2 167.2 96.4 250.6 144.6 9.6 5.6 19.8 6.4 28.8 0 9.8-7 14.8-16.2 12.4-29.6-8.2-45.8-15.6-91.8-23.2-137.8-7.4-44-14.8-88-22-131.8-8.6-52.4-17.2-104.6-26-157-7.2-43.8-14.8-87.4-22-131.2-5.2-31.4-10.6-62.8-15.4-94.4-3.4-21.6-20-31.6-40.2-23.4-26.8 10.8-53.4 21.8-80.2 32.6-37 15.2-74.2 30.2-111.6 45.6-13.2-16.2-26.4-32.2-39.6-48.2-21.4-26-42.6-52.2-64.2-78.2-7.8-9.4-19.6-12.4-31-8-10.6 4-17.2 13.8-17.2 25.6 0 48 0 96 0.2 144 0 3.2 1.4 6.8 3.4 9.4 67.8 83.4 135.6 166.6 203.4 249.8 51.4 63 103 126.2 154.4 189.2 1 1.2 2 2.6 2 5-9.6-8.2-19.4-16.6-29-24.8-83.2-72.2-166.6-144.4-249.8-216.4-53.8-46.6-108-92.8-161.4-140-8.8-7.8-15.4-8.2-25.4-4-49.6 20.8-99.2 41.2-149.2 61.4-10.6 4.2-19.4 9.8-23.2 21.2 0.2 4.4 0.2 9 0.2 13.4z" />
<glyph unicode="&#xf201;" glyph-name="reports" horiz-adv-x="1170" d="M1170.286 82.286v-73.143h-1170.286v877.714h73.143v-804.571h1097.143zM1097.143 795.429v-248.571q0-12-11.143-16.857t-20.286 4.286l-69.143 69.143-361.714-361.714q-5.714-5.714-13.143-5.714t-13.143 5.714l-133.143 133.143-237.714-237.714-109.714 109.714 334.286 334.286q5.714 5.714 13.143 5.714t13.143-5.714l133.143-133.143 265.143 265.143-69.143 69.143q-9.143 9.143-4.286 20.286t16.857 11.143h248.571q8 0 13.143-5.143t5.143-13.143z" />
</font>
</defs>
</svg>
